<svg width="2271" height="1288" xmlns="http://www.w3.org/2000/svg" xmlns:xlink="http://www.w3.org/1999/xlink" xml:space="preserve" overflow="hidden"><defs><clipPath id="clip0"><rect x="292" y="3709" width="2271" height="1288"/></clipPath></defs><g clip-path="url(#clip0)" transform="translate(-292 -3709)"><rect x="293" y="3710" width="2268" height="1285" fill="#FFFFFF"/><g><path d="M625.5 4552.65 2510.5 4552.65M625.5 4417.65 2510.5 4417.65M625.5 4283.64 2510.5 4283.64M625.5 4148.64 2510.5 4148.64M625.5 4014.63 2510.5 4014.63M625.5 3880.5 2510.5 3880.5" stroke="#D9D9D9" stroke-width="3.4375" stroke-linejoin="round" stroke-miterlimit="10" fill="none"/></g><g><path d="M685.022 4569.15 739.024 4569.15 739.024 4687 685.022 4687ZM1062.03 4522.15 1116.04 4522.15 1116.04 4687 1062.03 4687ZM1439.05 4492.15 1493.05 4492.15 1493.05 4687 1439.05 4687ZM1816.06 4407.14 1869.06 4407.14 1869.06 4687 1816.06 4687ZM2192.07 4324.14 2246.07 4324.14 2246.07 4687 2192.07 4687Z" fill="#156082"/></g><g><path d="M753.025 4542.15 807.026 4542.15 807.026 4687 753.025 4687ZM1130.04 4496.15 1184.04 4496.15 1184.04 4687 1130.04 4687ZM1507.05 4426.15 1561.05 4426.15 1561.05 4687 1507.05 4687ZM1884.06 4350.14 1938.06 4350.14 1938.06 4687 1884.06 4687ZM2261.07 4273.14 2315.08 4273.14 2315.08 4687 2261.07 4687Z" fill="#E97132"/></g><g><path d="M822.027 4615.15 875.029 4615.15 875.029 4687 822.027 4687ZM1199.04 4580.15 1252.04 4580.15 1252.04 4687 1199.04 4687ZM1575.05 4546.15 1629.05 4546.15 1629.05 4687 1575.05 4687ZM1952.06 4540.15 2006.07 4540.15 2006.07 4687 1952.06 4687ZM2329.08 4527.15 2383.08 4527.15 2383.08 4687 2329.08 4687Z" fill="#196B24"/></g><g><path d="M890.029 4595.15 944.031 4595.15 944.031 4687 890.029 4687ZM1267.04 4539.15 1321.04 4539.15 1321.04 4687 1267.04 4687ZM1644.05 4439.15 1698.06 4439.15 1698.06 4687 1644.05 4687ZM2021.07 4283.14 2075.07 4283.14 2075.07 4687 2021.07 4687ZM2398.08 3966.13 2451.08 3966.13 2451.08 4687 2398.08 4687Z" fill="#0F9ED5"/></g><g><path d="M0 0 0.000360892 806" stroke="#156082" stroke-width="3.4375" stroke-linejoin="round" stroke-miterlimit="10" fill="none" fill-rule="evenodd" transform="matrix(1 0 0 -1 625.5 4686.5)"/></g><g><path d="M625.5 4686.5 635.5 4686.5M625.5 4659.65 635.5 4659.65M625.5 4632.65 635.5 4632.65M625.5 4605.65 635.5 4605.65M625.5 4579.65 635.5 4579.65M625.5 4552.65 635.5 4552.65M625.5 4525.65 635.5 4525.65M625.5 4498.65 635.5 4498.65M625.5 4471.65 635.5 4471.65M625.5 4444.65 635.5 4444.65M625.5 4417.65 635.5 4417.65M625.5 4390.64 635.5 4390.64M625.5 4363.64 635.5 4363.64M625.5 4337.64 635.5 4337.64M625.5 4310.64 635.5 4310.64M625.5 4283.64 635.5 4283.64M625.5 4256.64 635.5 4256.64M625.5 4229.64 635.5 4229.64M625.5 4202.64 635.5 4202.64M625.5 4175.64 635.5 4175.64M625.5 4148.64 635.5 4148.64M625.5 4122.64 635.5 4122.64M625.5 4095.63 635.5 4095.63M625.5 4068.63 635.5 4068.63M625.5 4041.63 635.5 4041.63M625.5 4014.63 635.5 4014.63M625.5 3987.63 635.5 3987.63M625.5 3960.63 635.5 3960.63M625.5 3933.63 635.5 3933.63M625.5 3906.63 635.5 3906.63M625.5 3880.5 635.5 3880.5" stroke="#156082" stroke-width="3.4375" stroke-linejoin="round" stroke-miterlimit="10" fill="none"/></g><g><path d="M625.5 4686.5 2510.5 4686.5" stroke="#D9D9D9" stroke-width="3.4375" stroke-linejoin="round" stroke-miterlimit="10" fill="none" fill-rule="evenodd"/></g><g><text fill="#595959" font-family="Aptos Narrow,Aptos Narrow_MSFontService,sans-serif" font-weight="400" font-stretch="semi-condensed" font-size="41" transform="matrix(1 0 0 1 483.014 4698)">0.00%</text></g><g><text fill="#595959" font-family="Aptos Narrow,Aptos Narrow_MSFontService,sans-serif" font-weight="400" font-stretch="semi-condensed" font-size="41" transform="matrix(1 0 0 1 441.214 4564)">200.00%</text></g><g><text fill="#595959" font-family="Aptos Narrow,Aptos Narrow_MSFontService,sans-serif" font-weight="400" font-stretch="semi-condensed" font-size="41" transform="matrix(1 0 0 1 441.214 4429)">400.00%</text></g><g><text fill="#595959" font-family="Aptos Narrow,Aptos Narrow_MSFontService,sans-serif" font-weight="400" font-stretch="semi-condensed" font-size="41" transform="matrix(1 0 0 1 441.214 4295)">600.00%</text></g><g><text fill="#595959" font-family="Aptos Narrow,Aptos Narrow_MSFontService,sans-serif" font-weight="400" font-stretch="semi-condensed" font-size="41" transform="matrix(1 0 0 1 441.214 4161)">800.00%</text></g><g><text fill="#595959" font-family="Aptos Narrow,Aptos Narrow_MSFontService,sans-serif" font-weight="400" font-stretch="semi-condensed" font-size="41" transform="matrix(1 0 0 1 420.314 4026)">1000.00%</text></g><g><text fill="#595959" font-family="Aptos Narrow,Aptos Narrow_MSFontService,sans-serif" font-weight="400" font-stretch="semi-condensed" font-size="41" transform="matrix(1 0 0 1 420.314 3892)">1200.00%</text></g><g><text fill="#595959" font-family="Aptos Narrow,Aptos Narrow_MSFontService,sans-serif" font-weight="400" font-stretch="semi-condensed" font-size="41" transform="matrix(1 0 0 1 803.908 4752)">1</text></g><g><text fill="#595959" font-family="Aptos Narrow,Aptos Narrow_MSFontService,sans-serif" font-weight="400" font-stretch="semi-condensed" font-size="41" transform="matrix(1 0 0 1 1180.83 4752)">2</text></g><g><text fill="#595959" font-family="Aptos Narrow,Aptos Narrow_MSFontService,sans-serif" font-weight="400" font-stretch="semi-condensed" font-size="41" transform="matrix(1 0 0 1 1557.76 4752)">4</text></g><g><text fill="#595959" font-family="Aptos Narrow,Aptos Narrow_MSFontService,sans-serif" font-weight="400" font-stretch="semi-condensed" font-size="41" transform="matrix(1 0 0 1 1934.68 4752)">8</text></g><g><text fill="#595959" font-family="Aptos Narrow,Aptos Narrow_MSFontService,sans-serif" font-weight="400" font-stretch="semi-condensed" font-size="41" transform="matrix(1 0 0 1 2301.16 4752)">16</text></g><g><text fill="#595959" font-family="Aptos Narrow,Aptos Narrow_MSFontService,sans-serif" font-weight="400" font-stretch="semi-condensed" font-size="46" transform="matrix(6.12323e-17 -1 1 6.12323e-17 393.616 4776)">iters/s async2  divided by iters/s Task base async</text></g><g><text fill="#595959" font-family="Aptos Narrow,Aptos Narrow_MSFontService,sans-serif" font-weight="400" font-stretch="semi-condensed" font-size="46" transform="matrix(1 0 0 1 1457.12 4820)">Stack Depth</text></g><g><text fill="#595959" font-family="Aptos Narrow,Aptos Narrow_MSFontService,sans-serif" font-weight="400" font-stretch="semi-condensed" font-size="64" transform="matrix(1 0 0 1 804.739 3837)">Relative performance of existing async vs runtime async</text></g><g><rect x="713" y="4917" width="23.0001" height="23" fill="#156082"/></g><g><text fill="#595959" font-family="Aptos Narrow,Aptos Narrow_MSFontService,sans-serif" font-weight="400" font-stretch="semi-condensed" font-size="41" transform="matrix(1 0 0 1 745.163 4940)">Return NoSuspend</text></g><g><rect x="1119" y="4917" width="23" height="23" fill="#E97132"/></g><g><text fill="#595959" font-family="Aptos Narrow,Aptos Narrow_MSFontService,sans-serif" font-weight="400" font-stretch="semi-condensed" font-size="41" transform="matrix(1 0 0 1 1151.53 4940)">Throw NoSuspend</text></g><g><rect x="1515" y="4917" width="23" height="23" fill="#196B24"/></g><g><text fill="#595959" font-family="Aptos Narrow,Aptos Narrow_MSFontService,sans-serif" font-weight="400" font-stretch="semi-condensed" font-size="41" transform="matrix(1 0 0 1 1547.62 4940)">Return Suspend</text></g><g><rect x="1874" y="4917" width="23" height="23" fill="#0F9ED5"/></g><g><text fill="#595959" font-family="Aptos Narrow,Aptos Narrow_MSFontService,sans-serif" font-weight="400" font-stretch="semi-condensed" font-size="41" transform="matrix(1 0 0 1 1906.57 4940)">Throw Suspend</text></g><rect x="293.5" y="3710.5" width="2268" height="1285" stroke="#D9D9D9" stroke-width="3.4375" stroke-linejoin="round" stroke-miterlimit="10" fill="none"/></g></svg>