<svg width="2099" height="1210" xmlns="http://www.w3.org/2000/svg" xmlns:xlink="http://www.w3.org/1999/xlink" xml:space="preserve" overflow="hidden"><defs><clipPath id="clip0"><rect x="1877" y="756" width="2099" height="1210"/></clipPath></defs><g clip-path="url(#clip0)" transform="translate(-1877 -756)"><rect x="1878" y="757" width="2096" height="1207" fill="#FFFFFF"/><g><path d="M2155.5 1573.55 3923.5 1573.55M2155.5 1444.55 3923.5 1444.55M2155.5 1315.54 3923.5 1315.54M2155.5 1185.54 3923.5 1185.54M2155.5 1056.53 3923.5 1056.53M2155.5 927.5 3923.5 927.5" stroke="#D9D9D9" stroke-width="3.4375" stroke-linejoin="round" stroke-miterlimit="10" fill="none"/></g><g><path d="M2223.07 1551.05 2285.07 1551.05 2285.07 1703 2223.07 1703ZM2577.08 1535.05 2638.09 1535.05 2638.09 1703 2577.08 1703ZM2930.1 1552.05 2992.1 1552.05 2992.1 1703 2930.1 1703Z" fill="#156082"/></g><g><path d="M2301.08 1522.05 2363.08 1522.05 2363.08 1703 2301.08 1703ZM2655.09 1514.05 2717.09 1514.05 2717.09 1703 2655.09 1703ZM3008.1 1056.03 3070.1 1056.03 3070.1 1703 3008.1 1703ZM3362.11 1225.04 3424.11 1225.04 3424.11 1703 3362.11 1703ZM3716.12 1418.05 3777.12 1418.05 3777.12 1703 3716.12 1703Z" fill="#E97132"/></g><g><path d="M2380.08 1519.05 2441.08 1519.05 2441.08 1703 2380.08 1703ZM2733.09 1520.05 2795.09 1520.05 2795.09 1703 2733.09 1703ZM3087.1 1056.03 3149.1 1056.03 3149.1 1703 3087.1 1703ZM3440.11 1211.04 3502.11 1211.04 3502.11 1703 3440.11 1703ZM3794.12 1395.05 3856.13 1395.05 3856.13 1703 3794.12 1703Z" fill="#196B24"/></g><g><path d="M2155.5 1702.5 3923.5 1702.5" stroke="#D9D9D9" stroke-width="3.4375" stroke-linejoin="round" stroke-miterlimit="10" fill="none" fill-rule="evenodd"/></g><g><text fill="#595959" font-family="Aptos Narrow,Aptos Narrow_MSFontService,sans-serif" font-weight="400" font-stretch="semi-condensed" font-size="41" transform="matrix(1 0 0 1 2096.46 1714)">0</text></g><g><text fill="#595959" font-family="Aptos Narrow,Aptos Narrow_MSFontService,sans-serif" font-weight="400" font-stretch="semi-condensed" font-size="41" transform="matrix(1 0 0 1 1907.81 1585)">100,000,000</text></g><g><text fill="#595959" font-family="Aptos Narrow,Aptos Narrow_MSFontService,sans-serif" font-weight="400" font-stretch="semi-condensed" font-size="41" transform="matrix(1 0 0 1 1907.81 1456)">200,000,000</text></g><g><text fill="#595959" font-family="Aptos Narrow,Aptos Narrow_MSFontService,sans-serif" font-weight="400" font-stretch="semi-condensed" font-size="41" transform="matrix(1 0 0 1 1907.81 1327)">300,000,000</text></g><g><text fill="#595959" font-family="Aptos Narrow,Aptos Narrow_MSFontService,sans-serif" font-weight="400" font-stretch="semi-condensed" font-size="41" transform="matrix(1 0 0 1 1907.81 1197)">400,000,000</text></g><g><text fill="#595959" font-family="Aptos Narrow,Aptos Narrow_MSFontService,sans-serif" font-weight="400" font-stretch="semi-condensed" font-size="41" transform="matrix(1 0 0 1 1907.81 1068)">500,000,000</text></g><g><text fill="#595959" font-family="Aptos Narrow,Aptos Narrow_MSFontService,sans-serif" font-weight="400" font-stretch="semi-condensed" font-size="41" transform="matrix(1 0 0 1 1907.81 939)">600,000,000</text></g><g><text fill="#595959" font-family="Aptos Narrow,Aptos Narrow_MSFontService,sans-serif" font-weight="400" font-stretch="semi-condensed" font-size="41" transform="matrix(1 0 0 1 2231.48 1768)">Async1 Task</text></g><g><text fill="#595959" font-family="Aptos Narrow,Aptos Narrow_MSFontService,sans-serif" font-weight="400" font-stretch="semi-condensed" font-size="41" transform="matrix(1 0 0 1 2190.44 1818)">returning method</text></g><g><text fill="#595959" font-family="Aptos Narrow,Aptos Narrow_MSFontService,sans-serif" font-weight="400" font-stretch="semi-condensed" font-size="41" transform="matrix(1 0 0 1 2538.53 1768)">Async1 ValueTask</text></g><g><text fill="#595959" font-family="Aptos Narrow,Aptos Narrow_MSFontService,sans-serif" font-weight="400" font-stretch="semi-condensed" font-size="41" transform="matrix(1 0 0 1 2544.01 1818)">returning method</text></g><g><text fill="#595959" font-family="Aptos Narrow,Aptos Narrow_MSFontService,sans-serif" font-weight="400" font-stretch="semi-condensed" font-size="41" transform="matrix(1 0 0 1 2913.56 1768)">Async2 Method</text></g><g><text fill="#595959" font-family="Aptos Narrow,Aptos Narrow_MSFontService,sans-serif" font-weight="400" font-stretch="semi-condensed" font-size="41" transform="matrix(1 0 0 1 3271.67 1768)">Non-inlineable</text></g><g><text fill="#595959" font-family="Aptos Narrow,Aptos Narrow_MSFontService,sans-serif" font-weight="400" font-stretch="semi-condensed" font-size="41" transform="matrix(1 0 0 1 3265.86 1818)">Async2 method</text></g><g><text fill="#595959" font-family="Aptos Narrow,Aptos Narrow_MSFontService,sans-serif" font-weight="400" font-stretch="semi-condensed" font-size="41" transform="matrix(1 0 0 1 3582.15 1768)">Async2 Method with</text></g><g><text fill="#595959" font-family="Aptos Narrow,Aptos Narrow_MSFontService,sans-serif" font-weight="400" font-stretch="semi-condensed" font-size="41" transform="matrix(1 0 0 1 3643.6 1818)">context save</text></g><g><text fill="#595959" font-family="Aptos Narrow,Aptos Narrow_MSFontService,sans-serif" font-weight="400" font-stretch="semi-condensed" font-size="64" transform="matrix(1 0 0 1 2404.26 852)">Iterations/second calls to async methods</text></g><g><rect x="2152" y="1886" width="22" height="22.9996" fill="#156082"/></g><g><text fill="#595959" font-family="Aptos Narrow,Aptos Narrow_MSFontService,sans-serif" font-weight="400" font-stretch="semi-condensed" font-size="41" transform="matrix(1 0 0 1 2183.83 1909)">Async1 Task returning method</text></g><g><rect x="2761" y="1886" width="23" height="22.9996" fill="#E97132"/></g><g><text fill="#595959" font-family="Aptos Narrow,Aptos Narrow_MSFontService,sans-serif" font-weight="400" font-stretch="semi-condensed" font-size="41" transform="matrix(1 0 0 1 2793.7 1909)">Async2 JIT State machine</text></g><g><rect x="3290" y="1886" width="23" height="22.9996" fill="#196B24"/></g><g><text fill="#595959" font-family="Aptos Narrow,Aptos Narrow_MSFontService,sans-serif" font-weight="400" font-stretch="semi-condensed" font-size="41" transform="matrix(1 0 0 1 3322.75 1909)">Async2 Unwinder Model</text></g><rect x="1878.5" y="757.5" width="2096" height="1207" stroke="#D9D9D9" stroke-width="3.4375" stroke-linejoin="round" stroke-miterlimit="10" fill="none"/></g></svg>