<svg width="2581" height="1308" xmlns="http://www.w3.org/2000/svg" xmlns:xlink="http://www.w3.org/1999/xlink" xml:space="preserve" overflow="hidden"><defs><clipPath id="clip0"><rect x="3006" y="8833" width="2581" height="1308"/></clipPath></defs><g clip-path="url(#clip0)" transform="translate(-3006 -8833)"><rect x="3007" y="8834" width="2578" height="1305" fill="#FFFFFF"/><g><path d="M3318.5 9693.82 5534.5 9693.82M3318.5 9555.81 5534.5 9555.81M3318.5 9417.81 5534.5 9417.81M3318.5 9279.8 5534.5 9279.8M3318.5 9141.8 5534.5 9141.8M3318.5 9004.5 5534.5 9004.5" stroke="#D9D9D9" stroke-width="3.4375" stroke-linejoin="round" stroke-miterlimit="10" fill="none"/></g><g><path d="M3388.11 9227.3 3451.11 9227.3 3451.11 9831 3388.11 9831ZM3831.13 9277.3 3894.13 9277.3 3894.13 9831 3831.13 9831ZM4274.14 9299.31 4337.14 9299.31 4337.14 9831 4274.14 9831ZM4717.15 9333.31 4780.16 9333.31 4780.16 9831 4717.15 9831ZM5160.17 9334.31 5224.17 9334.31 5224.17 9831 5160.17 9831Z" fill="#A02B93"/></g><g><path d="M3468.11 9163.3 3531.12 9163.3 3531.12 9831 3468.11 9831ZM3911.13 9163.3 3974.13 9163.3 3974.13 9831 3911.13 9831ZM4354.14 9178.3 4418.14 9178.3 4418.14 9831 4354.14 9831ZM4798.16 9192.3 4861.16 9192.3 4861.16 9831 4798.16 9831ZM5241.17 9193.3 5304.17 9193.3 5304.17 9831 5241.17 9831Z" fill="#156082"/></g><g><path d="M3548.12 9147.3 3612.12 9147.3 3612.12 9831 3548.12 9831ZM3992.13 9167.3 4055.13 9167.3 4055.13 9831 3992.13 9831ZM4435.15 9183.3 4498.15 9183.3 4498.15 9831 4435.15 9831ZM4878.16 9232.3 4941.16 9232.3 4941.16 9831 4878.16 9831ZM5321.17 9228.3 5384.18 9228.3 5384.18 9831 5321.17 9831Z" fill="#E97132"/></g><g><path d="M3629.12 9149.3 3692.12 9149.3 3692.12 9831 3629.12 9831ZM4072.13 9409.31 4135.14 9409.31 4135.14 9831 4072.13 9831ZM4515.15 9596.32 4578.15 9596.32 4578.15 9831 4515.15 9831ZM4958.16 9694.32 5022.16 9694.32 5022.16 9831 4958.16 9831ZM5402.18 9756.32 5465.18 9756.32 5465.18 9831 5402.18 9831Z" fill="#196B24"/></g><g><path d="M0 0 0.000360892 827" stroke="#156082" stroke-width="3.4375" stroke-linejoin="round" stroke-miterlimit="10" fill="none" fill-rule="evenodd" transform="matrix(1 0 0 -1 3318.5 9831.5)"/></g><g><path d="M3318.5 9831.5 3328.5 9831.5M3318.5 9803.82 3328.5 9803.82M3318.5 9776.82 3328.5 9776.82M3318.5 9748.82 3328.5 9748.82M3318.5 9720.82 3328.5 9720.82M3318.5 9693.82 3328.5 9693.82M3318.5 9665.82 3328.5 9665.82M3318.5 9638.82 3328.5 9638.82M3318.5 9610.82 3328.5 9610.82M3318.5 9583.81 3328.5 9583.81M3318.5 9555.81 3328.5 9555.81M3318.5 9527.81 3328.5 9527.81M3318.5 9500.81 3328.5 9500.81M3318.5 9472.81 3328.5 9472.81M3318.5 9445.81 3328.5 9445.81M3318.5 9417.81 3328.5 9417.81M3318.5 9390.81 3328.5 9390.81M3318.5 9362.81 3328.5 9362.81M3318.5 9334.81 3328.5 9334.81M3318.5 9307.81 3328.5 9307.81M3318.5 9279.8 3328.5 9279.8M3318.5 9252.8 3328.5 9252.8M3318.5 9224.8 3328.5 9224.8M3318.5 9197.8 3328.5 9197.8M3318.5 9169.8 3328.5 9169.8M3318.5 9141.8 3328.5 9141.8M3318.5 9114.8 3328.5 9114.8M3318.5 9086.8 3328.5 9086.8M3318.5 9059.8 3328.5 9059.8M3318.5 9031.8 3328.5 9031.8M3318.5 9004.5 3328.5 9004.5" stroke="#156082" stroke-width="3.4375" stroke-linejoin="round" stroke-miterlimit="10" fill="none"/></g><g><path d="M3318.5 9831.5 5534.5 9831.5" stroke="#D9D9D9" stroke-width="3.4375" stroke-linejoin="round" stroke-miterlimit="10" fill="none" fill-rule="evenodd"/></g><g><text fill="#595959" font-family="Aptos Narrow,Aptos Narrow_MSFontService,sans-serif" font-weight="400" font-stretch="semi-condensed" font-size="41" transform="matrix(1 0 0 1 3175.45 9843)">0.00%</text></g><g><text fill="#595959" font-family="Aptos Narrow,Aptos Narrow_MSFontService,sans-serif" font-weight="400" font-stretch="semi-condensed" font-size="41" transform="matrix(1 0 0 1 3154.55 9705)">20.00%</text></g><g><text fill="#595959" font-family="Aptos Narrow,Aptos Narrow_MSFontService,sans-serif" font-weight="400" font-stretch="semi-condensed" font-size="41" transform="matrix(1 0 0 1 3154.55 9567)">40.00%</text></g><g><text fill="#595959" font-family="Aptos Narrow,Aptos Narrow_MSFontService,sans-serif" font-weight="400" font-stretch="semi-condensed" font-size="41" transform="matrix(1 0 0 1 3154.55 9429)">60.00%</text></g><g><text fill="#595959" font-family="Aptos Narrow,Aptos Narrow_MSFontService,sans-serif" font-weight="400" font-stretch="semi-condensed" font-size="41" transform="matrix(1 0 0 1 3154.55 9292)">80.00%</text></g><g><text fill="#595959" font-family="Aptos Narrow,Aptos Narrow_MSFontService,sans-serif" font-weight="400" font-stretch="semi-condensed" font-size="41" transform="matrix(1 0 0 1 3133.65 9154)">100.00%</text></g><g><text fill="#595959" font-family="Aptos Narrow,Aptos Narrow_MSFontService,sans-serif" font-weight="400" font-stretch="semi-condensed" font-size="41" transform="matrix(1 0 0 1 3133.65 9016)">120.00%</text></g><g><text fill="#595959" font-family="Aptos Narrow,Aptos Narrow_MSFontService,sans-serif" font-weight="400" font-stretch="semi-condensed" font-size="41" transform="matrix(1 0 0 1 3529.48 9896)">1</text></g><g><text fill="#595959" font-family="Aptos Narrow,Aptos Narrow_MSFontService,sans-serif" font-weight="400" font-stretch="semi-condensed" font-size="41" transform="matrix(1 0 0 1 3972.69 9896)">2</text></g><g><text fill="#595959" font-family="Aptos Narrow,Aptos Narrow_MSFontService,sans-serif" font-weight="400" font-stretch="semi-condensed" font-size="41" transform="matrix(1 0 0 1 4415.9 9896)">4</text></g><g><text fill="#595959" font-family="Aptos Narrow,Aptos Narrow_MSFontService,sans-serif" font-weight="400" font-stretch="semi-condensed" font-size="41" transform="matrix(1 0 0 1 4859.11 9896)">8</text></g><g><text fill="#595959" font-family="Aptos Narrow,Aptos Narrow_MSFontService,sans-serif" font-weight="400" font-stretch="semi-condensed" font-size="41" transform="matrix(1 0 0 1 5291.87 9896)">16</text></g><g><text fill="#595959" font-family="Aptos Narrow,Aptos Narrow_MSFontService,sans-serif" font-weight="400" font-stretch="semi-condensed" font-size="46" transform="matrix(6.12323e-17 -1 1 6.12323e-17 3106.95 9876)">iters/s async2capture  divided by iters/s async2</text></g><g><text fill="#595959" font-family="Aptos Narrow,Aptos Narrow_MSFontService,sans-serif" font-weight="400" font-stretch="semi-condensed" font-size="46" transform="matrix(1 0 0 1 4315.26 9964)">Stack Depth</text></g><g><text fill="#595959" font-family="Aptos Narrow,Aptos Narrow_MSFontService,sans-serif" font-weight="400" font-stretch="semi-condensed" font-size="64" transform="matrix(1 0 0 1 3315.8 8962)">Relative performance of runtime async vs runtime async with context capture</text></g><g><rect x="3581" y="10062" width="23" height="23" fill="#A02B93"/></g><g><text fill="#595959" font-family="Aptos Narrow,Aptos Narrow_MSFontService,sans-serif" font-weight="400" font-stretch="semi-condensed" font-size="41" transform="matrix(1 0 0 1 3613.76 10085)">Return NoSuspend</text></g><g><rect x="3988" y="10062" width="23" height="23" fill="#156082"/></g><g><text fill="#595959" font-family="Aptos Narrow,Aptos Narrow_MSFontService,sans-serif" font-weight="400" font-stretch="semi-condensed" font-size="41" transform="matrix(1 0 0 1 4020.13 10085)">Throw NoSuspend</text></g><g><rect x="4384" y="10062" width="23" height="23" fill="#E97132"/></g><g><text fill="#595959" font-family="Aptos Narrow,Aptos Narrow_MSFontService,sans-serif" font-weight="400" font-stretch="semi-condensed" font-size="41" transform="matrix(1 0 0 1 4416.21 10085)">Return Suspend</text></g><g><rect x="4743" y="10062" width="23" height="23" fill="#196B24"/></g><g><text fill="#595959" font-family="Aptos Narrow,Aptos Narrow_MSFontService,sans-serif" font-weight="400" font-stretch="semi-condensed" font-size="41" transform="matrix(1 0 0 1 4775.17 10085)">Throw Suspend</text></g><rect x="3007.5" y="8834.5" width="2578" height="1305" stroke="#D9D9D9" stroke-width="3.4375" stroke-linejoin="round" stroke-miterlimit="10" fill="none"/></g></svg>