<svg width="2556" height="1486" xmlns="http://www.w3.org/2000/svg" xmlns:xlink="http://www.w3.org/1999/xlink" xml:space="preserve" overflow="hidden"><defs><clipPath id="clip0"><rect x="2999" y="7360" width="2556" height="1486"/></clipPath></defs><g clip-path="url(#clip0)" transform="translate(-2999 -7360)"><rect x="3000" y="7361" width="2553" height="1483" fill="#FFFFFF"/><g><path d="M3311.5 8367.77 5502.5 8367.77M3311.5 8200.77 5502.5 8200.77M3311.5 8032.76 5502.5 8032.76M3311.5 7865.76 5502.5 7865.76M3311.5 7698.75 5502.5 7698.75M3311.5 7530.5 5502.5 7530.5" stroke="#D9D9D9" stroke-width="3.4375" stroke-linejoin="round" stroke-miterlimit="10" fill="none"/></g><g><path d="M3380.11 8278.27 3442.11 8278.27 3442.11 8536 3380.11 8536ZM3818.13 8206.27 3881.13 8206.27 3881.13 8536 3818.13 8536ZM4256.14 8161.27 4319.14 8161.27 4319.14 8536 4256.14 8536ZM4694.15 8031.26 4757.16 8031.26 4757.16 8536 4694.15 8536ZM5132.17 7885.26 5195.17 7885.26 5195.17 8536 5132.17 8536Z" fill="#A02B93"/></g><g><path d="M3459.11 8187.27 3522.12 8187.27 3522.12 8536 3459.11 8536ZM3898.13 8076.27 3960.13 8076.27 3960.13 8536 3898.13 8536ZM4336.14 7921.26 4398.14 7921.26 4398.14 8536 4336.14 8536ZM4774.16 7758.25 4836.16 7758.25 4836.16 8536 4774.16 8536ZM5212.17 7582.25 5275.17 7582.25 5275.17 8536 5212.17 8536Z" fill="#156082"/></g><g><path d="M3539.12 8358.27 3601.12 8358.27 3601.12 8536 3539.12 8536ZM3977.13 8280.27 4040.13 8280.27 4040.13 8536 3977.13 8536ZM4415.15 8206.27 4478.15 8206.27 4478.15 8536 4415.15 8536ZM4853.16 8217.27 4916.16 8217.27 4916.16 8536 4853.16 8536ZM5291.17 8187.27 5354.18 8187.27 5354.18 8536 5291.17 8536Z" fill="#E97132"/></g><g><path d="M3618.12 8309.27 3681.12 8309.27 3681.12 8536 3618.12 8536ZM4057.13 8310.27 4119.14 8310.27 4119.14 8536 4057.13 8536ZM4495.15 8325.27 4557.15 8325.27 4557.15 8536 4495.15 8536ZM4933.16 8335.27 4995.16 8335.27 4995.16 8536 4933.16 8536ZM5371.18 8340.27 5434.18 8340.27 5434.18 8536 5371.18 8536Z" fill="#196B24"/></g><g><path d="M0 0 0.000360892 1005" stroke="#156082" stroke-width="3.4375" stroke-linejoin="round" stroke-miterlimit="10" fill="none" fill-rule="evenodd" transform="matrix(1 0 0 -1 3311.5 8535.5)"/></g><g><path d="M3311.5 8535.5 3321.5 8535.5M3311.5 8501.78 3321.5 8501.78M3311.5 8468.78 3321.5 8468.78M3311.5 8434.78 3321.5 8434.78M3311.5 8401.78 3321.5 8401.78M3311.5 8367.77 3321.5 8367.77M3311.5 8334.77 3321.5 8334.77M3311.5 8300.77 3321.5 8300.77M3311.5 8267.77 3321.5 8267.77M3311.5 8233.77 3321.5 8233.77M3311.5 8200.77 3321.5 8200.77M3311.5 8166.77 3321.5 8166.77M3311.5 8133.77 3321.5 8133.77M3311.5 8099.77 3321.5 8099.77M3311.5 8066.76 3321.5 8066.76M3311.5 8032.76 3321.5 8032.76M3311.5 7999.76 3321.5 7999.76M3311.5 7965.76 3321.5 7965.76M3311.5 7932.76 3321.5 7932.76M3311.5 7898.76 3321.5 7898.76M3311.5 7865.76 3321.5 7865.76M3311.5 7831.76 3321.5 7831.76M3311.5 7798.76 3321.5 7798.76M3311.5 7765.75 3321.5 7765.75M3311.5 7731.75 3321.5 7731.75M3311.5 7698.75 3321.5 7698.75M3311.5 7664.75 3321.5 7664.75M3311.5 7631.75 3321.5 7631.75M3311.5 7597.75 3321.5 7597.75M3311.5 7564.75 3321.5 7564.75M3311.5 7530.5 3321.5 7530.5" stroke="#156082" stroke-width="3.4375" stroke-linejoin="round" stroke-miterlimit="10" fill="none"/></g><g><path d="M3311.5 8535.5 5502.5 8535.5" stroke="#D9D9D9" stroke-width="3.4375" stroke-linejoin="round" stroke-miterlimit="10" fill="none" fill-rule="evenodd"/></g><g><text fill="#595959" font-family="Aptos Narrow,Aptos Narrow_MSFontService,sans-serif" font-weight="400" font-stretch="semi-condensed" font-size="41" transform="matrix(1 0 0 1 3168.57 8547)">0.00%</text></g><g><text fill="#595959" font-family="Aptos Narrow,Aptos Narrow_MSFontService,sans-serif" font-weight="400" font-stretch="semi-condensed" font-size="41" transform="matrix(1 0 0 1 3126.77 8380)">100.00%</text></g><g><text fill="#595959" font-family="Aptos Narrow,Aptos Narrow_MSFontService,sans-serif" font-weight="400" font-stretch="semi-condensed" font-size="41" transform="matrix(1 0 0 1 3126.77 8212)">200.00%</text></g><g><text fill="#595959" font-family="Aptos Narrow,Aptos Narrow_MSFontService,sans-serif" font-weight="400" font-stretch="semi-condensed" font-size="41" transform="matrix(1 0 0 1 3126.77 8045)">300.00%</text></g><g><text fill="#595959" font-family="Aptos Narrow,Aptos Narrow_MSFontService,sans-serif" font-weight="400" font-stretch="semi-condensed" font-size="41" transform="matrix(1 0 0 1 3126.77 7877)">400.00%</text></g><g><text fill="#595959" font-family="Aptos Narrow,Aptos Narrow_MSFontService,sans-serif" font-weight="400" font-stretch="semi-condensed" font-size="41" transform="matrix(1 0 0 1 3126.77 7710)">500.00%</text></g><g><text fill="#595959" font-family="Aptos Narrow,Aptos Narrow_MSFontService,sans-serif" font-weight="400" font-stretch="semi-condensed" font-size="41" transform="matrix(1 0 0 1 3126.77 7542)">600.00%</text></g><g><text fill="#595959" font-family="Aptos Narrow,Aptos Narrow_MSFontService,sans-serif" font-weight="400" font-stretch="semi-condensed" font-size="41" transform="matrix(1 0 0 1 3520.09 8600)">1</text></g><g><text fill="#595959" font-family="Aptos Narrow,Aptos Narrow_MSFontService,sans-serif" font-weight="400" font-stretch="semi-condensed" font-size="41" transform="matrix(1 0 0 1 3958.26 8600)">2</text></g><g><text fill="#595959" font-family="Aptos Narrow,Aptos Narrow_MSFontService,sans-serif" font-weight="400" font-stretch="semi-condensed" font-size="41" transform="matrix(1 0 0 1 4396.42 8600)">4</text></g><g><text fill="#595959" font-family="Aptos Narrow,Aptos Narrow_MSFontService,sans-serif" font-weight="400" font-stretch="semi-condensed" font-size="41" transform="matrix(1 0 0 1 4834.59 8600)">8</text></g><g><text fill="#595959" font-family="Aptos Narrow,Aptos Narrow_MSFontService,sans-serif" font-weight="400" font-stretch="semi-condensed" font-size="41" transform="matrix(1 0 0 1 5262.31 8600)">16</text></g><g><text fill="#595959" font-family="Aptos Narrow,Aptos Narrow_MSFontService,sans-serif" font-weight="400" font-stretch="semi-condensed" font-size="46" transform="matrix(6.12323e-17 -1 1 6.12323e-17 3090.91 8613)">iters/s async2 with capture  divided by iters/s Task base async</text></g><g><text fill="#595959" font-family="Aptos Narrow,Aptos Narrow_MSFontService,sans-serif" font-weight="400" font-stretch="semi-condensed" font-size="46" transform="matrix(1 0 0 1 4295.78 8668)">Stack Depth</text></g><g><text fill="#595959" font-family="Aptos Narrow,Aptos Narrow_MSFontService,sans-serif" font-weight="400" font-stretch="semi-condensed" font-size="64" transform="matrix(1 0 0 1 3358.4 7491)">Relative performance of existing async vs runtime async with context capture</text></g><g><rect x="3562" y="8766" width="23" height="23" fill="#A02B93"/></g><g><text fill="#595959" font-family="Aptos Narrow,Aptos Narrow_MSFontService,sans-serif" font-weight="400" font-stretch="semi-condensed" font-size="41" transform="matrix(1 0 0 1 3594.28 8789)">Return NoSuspend</text></g><g><rect x="3968" y="8766" width="23" height="23" fill="#156082"/></g><g><text fill="#595959" font-family="Aptos Narrow,Aptos Narrow_MSFontService,sans-serif" font-weight="400" font-stretch="semi-condensed" font-size="41" transform="matrix(1 0 0 1 4000.65 8789)">Throw NoSuspend</text></g><g><rect x="4364" y="8766" width="23" height="23" fill="#E97132"/></g><g><text fill="#595959" font-family="Aptos Narrow,Aptos Narrow_MSFontService,sans-serif" font-weight="400" font-stretch="semi-condensed" font-size="41" transform="matrix(1 0 0 1 4396.73 8789)">Return Suspend</text></g><g><rect x="4723" y="8766" width="23" height="23" fill="#196B24"/></g><g><text fill="#595959" font-family="Aptos Narrow,Aptos Narrow_MSFontService,sans-serif" font-weight="400" font-stretch="semi-condensed" font-size="41" transform="matrix(1 0 0 1 4755.69 8789)">Throw Suspend</text></g><rect x="3000.5" y="7361.5" width="2553" height="1483" stroke="#D9D9D9" stroke-width="3.4375" stroke-linejoin="round" stroke-miterlimit="10" fill="none"/></g></svg>