<svg width="2010" height="1539" xmlns="http://www.w3.org/2000/svg" xmlns:xlink="http://www.w3.org/1999/xlink" xml:space="preserve" overflow="hidden"><defs><clipPath id="clip0"><rect x="3812" y="1330" width="2010" height="1539"/></clipPath></defs><g clip-path="url(#clip0)" transform="translate(-3812 -1330)"><rect x="3813" y="1331" width="2007" height="1536" fill="#FFFFFF"/><g><path d="M4146.5 2389.58 5769.5 2389.58M4146.5 2290.58 5769.5 2290.58M4146.5 2192.57 5769.5 2192.57M4146.5 2093.57 5769.5 2093.57M4146.5 1994.57 5769.5 1994.57M4146.5 1896.56 5769.5 1896.56M4146.5 1797.56 5769.5 1797.56M4146.5 1698.56 5769.5 1698.56M4146.5 1600.55 5769.5 1600.55M4146.5 1501.5 5769.5 1501.5" stroke="#D9D9D9" stroke-width="3.4375" stroke-linejoin="round" stroke-miterlimit="10" fill="none"/></g><g><path d="M4146.5 2488.5 5769.5 2488.5" stroke="#D9D9D9" stroke-width="3.4375" stroke-linejoin="round" stroke-miterlimit="10" fill="none" fill-rule="evenodd"/></g><g><path d="M4262 2181 4494.15 2295.08 4726.15 2374.08 4958.16 2420.08 5189.17 2451.08 5421.18 2469.08 5653 2479" stroke="#156082" stroke-width="10.3125" stroke-linecap="round" stroke-linejoin="round" stroke-miterlimit="10" fill="none"/></g><g><path d="M4273.83 2181.96C4273.83 2188.03 4268.91 2192.96 4262.83 2192.96 4256.76 2192.96 4251.83 2188.03 4251.83 2181.96 4251.83 2175.88 4256.76 2170.96 4262.83 2170.96 4268.91 2170.96 4273.83 2175.88 4273.83 2181.96Z" stroke="#156082" stroke-width="3.4375" stroke-linejoin="round" stroke-miterlimit="10" fill="#156082"/><path d="M4504.83 2294.96C4504.83 2301.03 4499.91 2305.96 4493.83 2305.96 4487.76 2305.96 4482.83 2301.03 4482.83 2294.96 4482.83 2288.88 4487.76 2283.96 4493.83 2283.96 4499.91 2283.96 4504.83 2288.88 4504.83 2294.96Z" stroke="#156082" stroke-width="3.4375" stroke-linejoin="round" stroke-miterlimit="10" fill="#156082"/><path d="M4736.83 2374.96C4736.83 2381.03 4731.91 2385.96 4725.83 2385.96 4719.76 2385.96 4714.83 2381.03 4714.83 2374.96 4714.83 2368.88 4719.76 2363.96 4725.83 2363.96 4731.91 2363.96 4736.83 2368.88 4736.83 2374.96Z" stroke="#156082" stroke-width="3.4375" stroke-linejoin="round" stroke-miterlimit="10" fill="#156082"/><path d="M4968.83 2419.96C4968.83 2426.03 4963.91 2430.96 4957.83 2430.96 4951.76 2430.96 4946.83 2426.03 4946.83 2419.96 4946.83 2413.88 4951.76 2408.96 4957.83 2408.96 4963.91 2408.96 4968.83 2413.88 4968.83 2419.96Z" stroke="#156082" stroke-width="3.4375" stroke-linejoin="round" stroke-miterlimit="10" fill="#156082"/><path d="M5200.83 2450.96C5200.83 2457.03 5195.91 2461.96 5189.83 2461.96 5183.76 2461.96 5178.83 2457.03 5178.83 2450.96 5178.83 2444.88 5183.76 2439.96 5189.83 2439.96 5195.91 2439.96 5200.83 2444.88 5200.83 2450.96Z" stroke="#156082" stroke-width="3.4375" stroke-linejoin="round" stroke-miterlimit="10" fill="#156082"/><path d="M5432.83 2469.96C5432.83 2476.03 5427.91 2480.96 5421.83 2480.96 5415.76 2480.96 5410.83 2476.03 5410.83 2469.96 5410.83 2463.88 5415.76 2458.96 5421.83 2458.96 5427.91 2458.96 5432.83 2463.88 5432.83 2469.96Z" stroke="#156082" stroke-width="3.4375" stroke-linejoin="round" stroke-miterlimit="10" fill="#156082"/><path d="M5664.83 2479.96C5664.83 2486.03 5659.91 2490.96 5653.83 2490.96 5647.76 2490.96 5642.83 2486.03 5642.83 2479.96 5642.83 2473.88 5647.76 2468.96 5653.83 2468.96 5659.91 2468.96 5664.83 2473.88 5664.83 2479.96Z" stroke="#156082" stroke-width="3.4375" stroke-linejoin="round" stroke-miterlimit="10" fill="#156082"/></g><g><path d="M4262 2181 4494.15 2296.08 4726.15 2380.08 4958.16 2422.08 5189.17 2451.08 5421.18 2470.08 5653 2479" stroke="#E97132" stroke-width="10.3125" stroke-linecap="round" stroke-linejoin="round" stroke-miterlimit="10" fill="none"/></g><g><path d="M4273.83 2180.96C4273.83 2187.03 4268.91 2191.96 4262.83 2191.96 4256.76 2191.96 4251.83 2187.03 4251.83 2180.96 4251.83 2174.88 4256.76 2169.96 4262.83 2169.96 4268.91 2169.96 4273.83 2174.88 4273.83 2180.96Z" stroke="#E97132" stroke-width="3.4375" stroke-linejoin="round" stroke-miterlimit="10" fill="#E97132"/><path d="M4504.83 2296.96C4504.83 2303.03 4499.91 2307.96 4493.83 2307.96 4487.76 2307.96 4482.83 2303.03 4482.83 2296.96 4482.83 2290.88 4487.76 2285.96 4493.83 2285.96 4499.91 2285.96 4504.83 2290.88 4504.83 2296.96Z" stroke="#E97132" stroke-width="3.4375" stroke-linejoin="round" stroke-miterlimit="10" fill="#E97132"/><path d="M4736.83 2379.96C4736.83 2386.03 4731.91 2390.96 4725.83 2390.96 4719.76 2390.96 4714.83 2386.03 4714.83 2379.96 4714.83 2373.88 4719.76 2368.96 4725.83 2368.96 4731.91 2368.96 4736.83 2373.88 4736.83 2379.96Z" stroke="#E97132" stroke-width="3.4375" stroke-linejoin="round" stroke-miterlimit="10" fill="#E97132"/><path d="M4968.83 2421.96C4968.83 2428.03 4963.91 2432.96 4957.83 2432.96 4951.76 2432.96 4946.83 2428.03 4946.83 2421.96 4946.83 2415.88 4951.76 2410.96 4957.83 2410.96 4963.91 2410.96 4968.83 2415.88 4968.83 2421.96Z" stroke="#E97132" stroke-width="3.4375" stroke-linejoin="round" stroke-miterlimit="10" fill="#E97132"/><path d="M5200.83 2450.96C5200.83 2457.03 5195.91 2461.96 5189.83 2461.96 5183.76 2461.96 5178.83 2457.03 5178.83 2450.96 5178.83 2444.88 5183.76 2439.96 5189.83 2439.96 5195.91 2439.96 5200.83 2444.88 5200.83 2450.96Z" stroke="#E97132" stroke-width="3.4375" stroke-linejoin="round" stroke-miterlimit="10" fill="#E97132"/><path d="M5432.83 2469.96C5432.83 2476.03 5427.91 2480.96 5421.83 2480.96 5415.76 2480.96 5410.83 2476.03 5410.83 2469.96 5410.83 2463.88 5415.76 2458.96 5421.83 2458.96 5427.91 2458.96 5432.83 2463.88 5432.83 2469.96Z" stroke="#E97132" stroke-width="3.4375" stroke-linejoin="round" stroke-miterlimit="10" fill="#E97132"/><path d="M5664.83 2479.96C5664.83 2486.03 5659.91 2490.96 5653.83 2490.96 5647.76 2490.96 5642.83 2486.03 5642.83 2479.96 5642.83 2473.88 5647.76 2468.96 5653.83 2468.96 5659.91 2468.96 5664.83 2473.88 5664.83 2479.96Z" stroke="#E97132" stroke-width="3.4375" stroke-linejoin="round" stroke-miterlimit="10" fill="#E97132"/></g><g><path d="M4262 2070.07 4494.15 2064 4726.15 2068.07 4958.16 2076.07 5189.17 2084.07 5421.18 2106.07 5653 2142" stroke="#196B24" stroke-width="10.3125" stroke-linecap="round" stroke-linejoin="round" stroke-miterlimit="10" fill="none"/></g><g><path d="M4273.83 2069.96C4273.83 2076.03 4268.91 2080.96 4262.83 2080.96 4256.76 2080.96 4251.83 2076.03 4251.83 2069.96 4251.83 2063.88 4256.76 2058.96 4262.83 2058.96 4268.91 2058.96 4273.83 2063.88 4273.83 2069.96Z" stroke="#196B24" stroke-width="3.4375" stroke-linejoin="round" stroke-miterlimit="10" fill="#196B24"/><path d="M4504.83 2063.96C4504.83 2070.03 4499.91 2074.96 4493.83 2074.96 4487.76 2074.96 4482.83 2070.03 4482.83 2063.96 4482.83 2057.88 4487.76 2052.96 4493.83 2052.96 4499.91 2052.96 4504.83 2057.88 4504.83 2063.96Z" stroke="#196B24" stroke-width="3.4375" stroke-linejoin="round" stroke-miterlimit="10" fill="#196B24"/><path d="M4736.83 2068.96C4736.83 2075.03 4731.91 2079.96 4725.83 2079.96 4719.76 2079.96 4714.83 2075.03 4714.83 2068.96 4714.83 2062.88 4719.76 2057.96 4725.83 2057.96 4731.91 2057.96 4736.83 2062.88 4736.83 2068.96Z" stroke="#196B24" stroke-width="3.4375" stroke-linejoin="round" stroke-miterlimit="10" fill="#196B24"/><path d="M4968.83 2076.96C4968.83 2083.03 4963.91 2087.96 4957.83 2087.96 4951.76 2087.96 4946.83 2083.03 4946.83 2076.96 4946.83 2070.88 4951.76 2065.96 4957.83 2065.96 4963.91 2065.96 4968.83 2070.88 4968.83 2076.96Z" stroke="#196B24" stroke-width="3.4375" stroke-linejoin="round" stroke-miterlimit="10" fill="#196B24"/><path d="M5200.83 2083.96C5200.83 2090.03 5195.91 2094.96 5189.83 2094.96 5183.76 2094.96 5178.83 2090.03 5178.83 2083.96 5178.83 2077.88 5183.76 2072.96 5189.83 2072.96 5195.91 2072.96 5200.83 2077.88 5200.83 2083.96Z" stroke="#196B24" stroke-width="3.4375" stroke-linejoin="round" stroke-miterlimit="10" fill="#196B24"/><path d="M5432.83 2105.96C5432.83 2112.03 5427.91 2116.96 5421.83 2116.96 5415.76 2116.96 5410.83 2112.03 5410.83 2105.96 5410.83 2099.88 5415.76 2094.96 5421.83 2094.96 5427.91 2094.96 5432.83 2099.88 5432.83 2105.96Z" stroke="#196B24" stroke-width="3.4375" stroke-linejoin="round" stroke-miterlimit="10" fill="#196B24"/><path d="M5664.83 2141.96C5664.83 2148.03 5659.91 2152.96 5653.83 2152.96 5647.76 2152.96 5642.83 2148.03 5642.83 2141.96 5642.83 2135.88 5647.76 2130.96 5653.83 2130.96 5659.91 2130.96 5664.83 2135.88 5664.83 2141.96Z" stroke="#196B24" stroke-width="3.4375" stroke-linejoin="round" stroke-miterlimit="10" fill="#196B24"/></g><g><path d="M4262 2061 4494.15 2216.07 4726.15 2336.08 4958.16 2408.08 5189.17 2447.08 5421.18 2468.08 5653 2479" stroke="#0F9ED5" stroke-width="10.3125" stroke-linecap="round" stroke-linejoin="round" stroke-miterlimit="10" fill="none"/></g><g><path d="M4273.83 2061.96C4273.83 2068.03 4268.91 2072.96 4262.83 2072.96 4256.76 2072.96 4251.83 2068.03 4251.83 2061.96 4251.83 2055.88 4256.76 2050.96 4262.83 2050.96 4268.91 2050.96 4273.83 2055.88 4273.83 2061.96Z" stroke="#0F9ED5" stroke-width="3.4375" stroke-linejoin="round" stroke-miterlimit="10" fill="#0F9ED5"/><path d="M4504.83 2216.96C4504.83 2223.03 4499.91 2227.96 4493.83 2227.96 4487.76 2227.96 4482.83 2223.03 4482.83 2216.96 4482.83 2210.88 4487.76 2205.96 4493.83 2205.96 4499.91 2205.96 4504.83 2210.88 4504.83 2216.96Z" stroke="#0F9ED5" stroke-width="3.4375" stroke-linejoin="round" stroke-miterlimit="10" fill="#0F9ED5"/><path d="M4736.83 2336.96C4736.83 2343.03 4731.91 2347.96 4725.83 2347.96 4719.76 2347.96 4714.83 2343.03 4714.83 2336.96 4714.83 2330.88 4719.76 2325.96 4725.83 2325.96 4731.91 2325.96 4736.83 2330.88 4736.83 2336.96Z" stroke="#0F9ED5" stroke-width="3.4375" stroke-linejoin="round" stroke-miterlimit="10" fill="#0F9ED5"/><path d="M4968.83 2408.96C4968.83 2415.03 4963.91 2419.96 4957.83 2419.96 4951.76 2419.96 4946.83 2415.03 4946.83 2408.96 4946.83 2402.88 4951.76 2397.96 4957.83 2397.96 4963.91 2397.96 4968.83 2402.88 4968.83 2408.96Z" stroke="#0F9ED5" stroke-width="3.4375" stroke-linejoin="round" stroke-miterlimit="10" fill="#0F9ED5"/><path d="M5200.83 2446.96C5200.83 2453.03 5195.91 2457.96 5189.83 2457.96 5183.76 2457.96 5178.83 2453.03 5178.83 2446.96 5178.83 2440.88 5183.76 2435.96 5189.83 2435.96 5195.91 2435.96 5200.83 2440.88 5200.83 2446.96Z" stroke="#0F9ED5" stroke-width="3.4375" stroke-linejoin="round" stroke-miterlimit="10" fill="#0F9ED5"/><path d="M5432.83 2468.96C5432.83 2475.03 5427.91 2479.96 5421.83 2479.96 5415.76 2479.96 5410.83 2475.03 5410.83 2468.96 5410.83 2462.88 5415.76 2457.96 5421.83 2457.96 5427.91 2457.96 5432.83 2462.88 5432.83 2468.96Z" stroke="#0F9ED5" stroke-width="3.4375" stroke-linejoin="round" stroke-miterlimit="10" fill="#0F9ED5"/><path d="M5664.83 2478.96C5664.83 2485.03 5659.91 2489.96 5653.83 2489.96 5647.76 2489.96 5642.83 2485.03 5642.83 2478.96 5642.83 2472.88 5647.76 2467.96 5653.83 2467.96 5659.91 2467.96 5664.83 2472.88 5664.83 2478.96Z" stroke="#0F9ED5" stroke-width="3.4375" stroke-linejoin="round" stroke-miterlimit="10" fill="#0F9ED5"/></g><g><path d="M4262 2058 4494.15 2225.07 4726.15 2341.08 4958.16 2409.08 5189.17 2448.08 5421.18 2469.08 5653 2479" stroke="#A02B93" stroke-width="10.3125" stroke-linecap="round" stroke-linejoin="round" stroke-miterlimit="10" fill="none"/></g><g><path d="M4273.83 2058.96C4273.83 2065.03 4268.91 2069.96 4262.83 2069.96 4256.76 2069.96 4251.83 2065.03 4251.83 2058.96 4251.83 2052.88 4256.76 2047.96 4262.83 2047.96 4268.91 2047.96 4273.83 2052.88 4273.83 2058.96Z" stroke="#A02B93" stroke-width="3.4375" stroke-linejoin="round" stroke-miterlimit="10" fill="#A02B93"/><path d="M4504.83 2224.96C4504.83 2231.03 4499.91 2235.96 4493.83 2235.96 4487.76 2235.96 4482.83 2231.03 4482.83 2224.96 4482.83 2218.88 4487.76 2213.96 4493.83 2213.96 4499.91 2213.96 4504.83 2218.88 4504.83 2224.96Z" stroke="#A02B93" stroke-width="3.4375" stroke-linejoin="round" stroke-miterlimit="10" fill="#A02B93"/><path d="M4736.83 2340.96C4736.83 2347.03 4731.91 2351.96 4725.83 2351.96 4719.76 2351.96 4714.83 2347.03 4714.83 2340.96 4714.83 2334.88 4719.76 2329.96 4725.83 2329.96 4731.91 2329.96 4736.83 2334.88 4736.83 2340.96Z" stroke="#A02B93" stroke-width="3.4375" stroke-linejoin="round" stroke-miterlimit="10" fill="#A02B93"/><path d="M4968.83 2409.96C4968.83 2416.03 4963.91 2420.96 4957.83 2420.96 4951.76 2420.96 4946.83 2416.03 4946.83 2409.96 4946.83 2403.88 4951.76 2398.96 4957.83 2398.96 4963.91 2398.96 4968.83 2403.88 4968.83 2409.96Z" stroke="#A02B93" stroke-width="3.4375" stroke-linejoin="round" stroke-miterlimit="10" fill="#A02B93"/><path d="M5200.83 2447.96C5200.83 2454.03 5195.91 2458.96 5189.83 2458.96 5183.76 2458.96 5178.83 2454.03 5178.83 2447.96 5178.83 2441.88 5183.76 2436.96 5189.83 2436.96 5195.91 2436.96 5200.83 2441.88 5200.83 2447.96Z" stroke="#A02B93" stroke-width="3.4375" stroke-linejoin="round" stroke-miterlimit="10" fill="#A02B93"/><path d="M5432.83 2468.96C5432.83 2475.03 5427.91 2479.96 5421.83 2479.96 5415.76 2479.96 5410.83 2475.03 5410.83 2468.96 5410.83 2462.88 5415.76 2457.96 5421.83 2457.96 5427.91 2457.96 5432.83 2462.88 5432.83 2468.96Z" stroke="#A02B93" stroke-width="3.4375" stroke-linejoin="round" stroke-miterlimit="10" fill="#A02B93"/><path d="M5664.83 2479.96C5664.83 2486.03 5659.91 2490.96 5653.83 2490.96 5647.76 2490.96 5642.83 2486.03 5642.83 2479.96 5642.83 2473.88 5647.76 2468.96 5653.83 2468.96 5659.91 2468.96 5664.83 2473.88 5664.83 2479.96Z" stroke="#A02B93" stroke-width="3.4375" stroke-linejoin="round" stroke-miterlimit="10" fill="#A02B93"/></g><g><path d="M4262 1572 4494.15 1719.06 4726.15 1898.06 4958.16 2086.07 5189.17 2233.07 5421.18 2344.08 5653 2411" stroke="#4EA72E" stroke-width="10.3125" stroke-linecap="round" stroke-linejoin="round" stroke-miterlimit="10" fill="none"/></g><g><path d="M4273.83 1571.96C4273.83 1578.03 4268.91 1582.96 4262.83 1582.96 4256.76 1582.96 4251.83 1578.03 4251.83 1571.96 4251.83 1565.88 4256.76 1560.96 4262.83 1560.96 4268.91 1560.96 4273.83 1565.88 4273.83 1571.96Z" stroke="#4EA72E" stroke-width="3.4375" stroke-linejoin="round" stroke-miterlimit="10" fill="#4EA72E"/><path d="M4504.83 1719.96C4504.83 1726.03 4499.91 1730.96 4493.83 1730.96 4487.76 1730.96 4482.83 1726.03 4482.83 1719.96 4482.83 1713.88 4487.76 1708.96 4493.83 1708.96 4499.91 1708.96 4504.83 1713.88 4504.83 1719.96Z" stroke="#4EA72E" stroke-width="3.4375" stroke-linejoin="round" stroke-miterlimit="10" fill="#4EA72E"/><path d="M4736.83 1898.96C4736.83 1905.03 4731.91 1909.96 4725.83 1909.96 4719.76 1909.96 4714.83 1905.03 4714.83 1898.96 4714.83 1892.88 4719.76 1887.96 4725.83 1887.96 4731.91 1887.96 4736.83 1892.88 4736.83 1898.96Z" stroke="#4EA72E" stroke-width="3.4375" stroke-linejoin="round" stroke-miterlimit="10" fill="#4EA72E"/><path d="M4968.83 2086.96C4968.83 2093.03 4963.91 2097.96 4957.83 2097.96 4951.76 2097.96 4946.83 2093.03 4946.83 2086.96 4946.83 2080.88 4951.76 2075.96 4957.83 2075.96 4963.91 2075.96 4968.83 2080.88 4968.83 2086.96Z" stroke="#4EA72E" stroke-width="3.4375" stroke-linejoin="round" stroke-miterlimit="10" fill="#4EA72E"/><path d="M5200.83 2232.96C5200.83 2239.03 5195.91 2243.96 5189.83 2243.96 5183.76 2243.96 5178.83 2239.03 5178.83 2232.96 5178.83 2226.88 5183.76 2221.96 5189.83 2221.96 5195.91 2221.96 5200.83 2226.88 5200.83 2232.96Z" stroke="#4EA72E" stroke-width="3.4375" stroke-linejoin="round" stroke-miterlimit="10" fill="#4EA72E"/><path d="M5432.83 2343.96C5432.83 2350.03 5427.91 2354.96 5421.83 2354.96 5415.76 2354.96 5410.83 2350.03 5410.83 2343.96 5410.83 2337.88 5415.76 2332.96 5421.83 2332.96 5427.91 2332.96 5432.83 2337.88 5432.83 2343.96Z" stroke="#4EA72E" stroke-width="3.4375" stroke-linejoin="round" stroke-miterlimit="10" fill="#4EA72E"/><path d="M5664.83 2410.96C5664.83 2417.03 5659.91 2421.96 5653.83 2421.96 5647.76 2421.96 5642.83 2417.03 5642.83 2410.96 5642.83 2404.88 5647.76 2399.96 5653.83 2399.96 5659.91 2399.96 5664.83 2404.88 5664.83 2410.96Z" stroke="#4EA72E" stroke-width="3.4375" stroke-linejoin="round" stroke-miterlimit="10" fill="#4EA72E"/></g><g><text fill="#595959" font-family="Aptos Narrow,Aptos Narrow_MSFontService,sans-serif" font-weight="400" font-stretch="semi-condensed" font-size="41" transform="matrix(1 0 0 1 4034.64 2500)">0.00</text></g><g><text fill="#595959" font-family="Aptos Narrow,Aptos Narrow_MSFontService,sans-serif" font-weight="400" font-stretch="semi-condensed" font-size="41" transform="matrix(1 0 0 1 3961.21 2401)">5,000.00</text></g><g><text fill="#595959" font-family="Aptos Narrow,Aptos Narrow_MSFontService,sans-serif" font-weight="400" font-stretch="semi-condensed" font-size="41" transform="matrix(1 0 0 1 3940.31 2303)">10,000.00</text></g><g><text fill="#595959" font-family="Aptos Narrow,Aptos Narrow_MSFontService,sans-serif" font-weight="400" font-stretch="semi-condensed" font-size="41" transform="matrix(1 0 0 1 3940.31 2204)">15,000.00</text></g><g><text fill="#595959" font-family="Aptos Narrow,Aptos Narrow_MSFontService,sans-serif" font-weight="400" font-stretch="semi-condensed" font-size="41" transform="matrix(1 0 0 1 3940.31 2105)">20,000.00</text></g><g><text fill="#595959" font-family="Aptos Narrow,Aptos Narrow_MSFontService,sans-serif" font-weight="400" font-stretch="semi-condensed" font-size="41" transform="matrix(1 0 0 1 3940.31 2006)">25,000.00</text></g><g><text fill="#595959" font-family="Aptos Narrow,Aptos Narrow_MSFontService,sans-serif" font-weight="400" font-stretch="semi-condensed" font-size="41" transform="matrix(1 0 0 1 3940.31 1908)">30,000.00</text></g><g><text fill="#595959" font-family="Aptos Narrow,Aptos Narrow_MSFontService,sans-serif" font-weight="400" font-stretch="semi-condensed" font-size="41" transform="matrix(1 0 0 1 3940.31 1809)">35,000.00</text></g><g><text fill="#595959" font-family="Aptos Narrow,Aptos Narrow_MSFontService,sans-serif" font-weight="400" font-stretch="semi-condensed" font-size="41" transform="matrix(1 0 0 1 3940.31 1710)">40,000.00</text></g><g><text fill="#595959" font-family="Aptos Narrow,Aptos Narrow_MSFontService,sans-serif" font-weight="400" font-stretch="semi-condensed" font-size="41" transform="matrix(1 0 0 1 3940.31 1612)">45,000.00</text></g><g><text fill="#595959" font-family="Aptos Narrow,Aptos Narrow_MSFontService,sans-serif" font-weight="400" font-stretch="semi-condensed" font-size="41" transform="matrix(1 0 0 1 3940.31 1513)">50,000.00</text></g><g><text fill="#595959" font-family="Aptos Narrow,Aptos Narrow_MSFontService,sans-serif" font-weight="400" font-stretch="semi-condensed" font-size="41" transform="matrix(1 0 0 1 4251.64 2553)">1</text></g><g><text fill="#595959" font-family="Aptos Narrow,Aptos Narrow_MSFontService,sans-serif" font-weight="400" font-stretch="semi-condensed" font-size="41" transform="matrix(1 0 0 1 4483.51 2553)">2</text></g><g><text fill="#595959" font-family="Aptos Narrow,Aptos Narrow_MSFontService,sans-serif" font-weight="400" font-stretch="semi-condensed" font-size="41" transform="matrix(1 0 0 1 4715.38 2553)">4</text></g><g><text fill="#595959" font-family="Aptos Narrow,Aptos Narrow_MSFontService,sans-serif" font-weight="400" font-stretch="semi-condensed" font-size="41" transform="matrix(1 0 0 1 4947.26 2553)">8</text></g><g><text fill="#595959" font-family="Aptos Narrow,Aptos Narrow_MSFontService,sans-serif" font-weight="400" font-stretch="semi-condensed" font-size="41" transform="matrix(1 0 0 1 5168.68 2553)">16</text></g><g><text fill="#595959" font-family="Aptos Narrow,Aptos Narrow_MSFontService,sans-serif" font-weight="400" font-stretch="semi-condensed" font-size="41" transform="matrix(1 0 0 1 5400.56 2553)">32</text></g><g><text fill="#595959" font-family="Aptos Narrow,Aptos Narrow_MSFontService,sans-serif" font-weight="400" font-stretch="semi-condensed" font-size="41" transform="matrix(1 0 0 1 5632.43 2553)">64</text></g><g><text fill="#595959" font-family="Aptos Narrow,Aptos Narrow_MSFontService,sans-serif" font-weight="400" font-stretch="semi-condensed" font-size="46" transform="matrix(6.12323e-17 -1 1 6.12323e-17 3913.62 2105)">iters/250ms</text></g><g><text fill="#595959" font-family="Aptos Narrow,Aptos Narrow_MSFontService,sans-serif" font-weight="400" font-stretch="semi-condensed" font-size="46" transform="matrix(1 0 0 1 4846.62 2621)">Stack Depth</text></g><g><text fill="#595959" font-family="Aptos Narrow,Aptos Narrow_MSFontService,sans-serif" font-weight="400" font-stretch="semi-condensed" font-size="64" transform="matrix(1 0 0 1 4380.08 1426)">Throw perf at varying  stack depths</text></g><g><path d="M3954 2730 4042 2730" stroke="#156082" stroke-width="10.3125" stroke-linecap="round" stroke-linejoin="round" stroke-miterlimit="10" fill="none" fill-rule="evenodd"/></g><g><path d="M4009 2730C4009 2736.07 4004.07 2741 3998 2741 3991.93 2741 3987 2736.07 3987 2730 3987 2723.92 3991.93 2719 3998 2719 4004.07 2719 4009 2723.92 4009 2730Z" stroke="#156082" stroke-width="3.4375" stroke-linejoin="round" stroke-miterlimit="10" fill="#156082"/></g><g><text fill="#595959" font-family="Aptos Narrow,Aptos Narrow_MSFontService,sans-serif" font-weight="400" font-stretch="semi-condensed" font-size="41" transform="matrix(1 0 0 1 4051.76 2742)">Task Throw Suspend</text></g><g><path d="M4539 2730 4627 2730" stroke="#E97132" stroke-width="10.3125" stroke-linecap="round" stroke-linejoin="round" stroke-miterlimit="10" fill="none" fill-rule="evenodd"/></g><g><path d="M4593 2730C4593 2736.07 4588.08 2741 4582 2741 4575.92 2741 4571 2736.07 4571 2730 4571 2723.92 4575.92 2719 4582 2719 4588.08 2719 4593 2723.92 4593 2730Z" stroke="#E97132" stroke-width="3.4375" stroke-linejoin="round" stroke-miterlimit="10" fill="#E97132"/></g><g><text fill="#595959" font-family="Aptos Narrow,Aptos Narrow_MSFontService,sans-serif" font-weight="400" font-stretch="semi-condensed" font-size="41" transform="matrix(1 0 0 1 4636.07 2742)">ValueTask Throw Suspend</text></g><g><path d="M5123 2730 5211 2730" stroke="#196B24" stroke-width="10.3125" stroke-linecap="round" stroke-linejoin="round" stroke-miterlimit="10" fill="none" fill-rule="evenodd"/></g><g><path d="M5178 2730C5178 2736.07 5173.08 2741 5167 2741 5160.92 2741 5156 2736.07 5156 2730 5156 2723.92 5160.92 2719 5167 2719 5173.08 2719 5178 2723.92 5178 2730Z" stroke="#196B24" stroke-width="3.4375" stroke-linejoin="round" stroke-miterlimit="10" fill="#196B24"/></g><g><text fill="#595959" font-family="Aptos Narrow,Aptos Narrow_MSFontService,sans-serif" font-weight="400" font-stretch="semi-condensed" font-size="41" transform="matrix(1 0 0 1 5220.38 2742)">Async2 Throw Suspend</text></g><g><path d="M3954 2808 4042 2808" stroke="#0F9ED5" stroke-width="10.3125" stroke-linecap="round" stroke-linejoin="round" stroke-miterlimit="10" fill="none" fill-rule="evenodd"/></g><g><path d="M4009 2807C4009 2813.07 4004.07 2818 3998 2818 3991.93 2818 3987 2813.07 3987 2807 3987 2800.92 3991.93 2796 3998 2796 4004.07 2796 4009 2800.92 4009 2807Z" stroke="#0F9ED5" stroke-width="3.4375" stroke-linejoin="round" stroke-miterlimit="10" fill="#0F9ED5"/></g><g><text fill="#595959" font-family="Aptos Narrow,Aptos Narrow_MSFontService,sans-serif" font-weight="400" font-stretch="semi-condensed" font-size="41" transform="matrix(1 0 0 1 4051.76 2819)">Task Throw NoSuspend</text></g><g><path d="M4539 2808 4627 2808" stroke="#A02B93" stroke-width="10.3125" stroke-linecap="round" stroke-linejoin="round" stroke-miterlimit="10" fill="none" fill-rule="evenodd"/></g><g><path d="M4593 2807C4593 2813.07 4588.08 2818 4582 2818 4575.92 2818 4571 2813.07 4571 2807 4571 2800.92 4575.92 2796 4582 2796 4588.08 2796 4593 2800.92 4593 2807Z" stroke="#A02B93" stroke-width="3.4375" stroke-linejoin="round" stroke-miterlimit="10" fill="#A02B93"/></g><g><text fill="#595959" font-family="Aptos Narrow,Aptos Narrow_MSFontService,sans-serif" font-weight="400" font-stretch="semi-condensed" font-size="41" transform="matrix(1 0 0 1 4636.07 2819)">ValueTask Throw NoSuspend</text></g><g><path d="M5123 2808 5211 2808" stroke="#4EA72E" stroke-width="10.3125" stroke-linecap="round" stroke-linejoin="round" stroke-miterlimit="10" fill="none" fill-rule="evenodd"/></g><g><path d="M5178 2807C5178 2813.07 5173.08 2818 5167 2818 5160.92 2818 5156 2813.07 5156 2807 5156 2800.92 5160.92 2796 5167 2796 5173.08 2796 5178 2800.92 5178 2807Z" stroke="#4EA72E" stroke-width="3.4375" stroke-linejoin="round" stroke-miterlimit="10" fill="#4EA72E"/></g><g><text fill="#595959" font-family="Aptos Narrow,Aptos Narrow_MSFontService,sans-serif" font-weight="400" font-stretch="semi-condensed" font-size="41" transform="matrix(1 0 0 1 5220.38 2819)">Async2 Throw NoSuspend</text></g><rect x="3813.5" y="1331.5" width="2007" height="1536" stroke="#D9D9D9" stroke-width="3.4375" stroke-linejoin="round" stroke-miterlimit="10" fill="none"/></g></svg>