<svg width="2745" height="1360" xmlns="http://www.w3.org/2000/svg" xmlns:xlink="http://www.w3.org/1999/xlink" xml:space="preserve" overflow="hidden"><defs><clipPath id="clip0"><rect x="3101" y="5799" width="2745" height="1360"/></clipPath></defs><g clip-path="url(#clip0)" transform="translate(-3101 -5799)"><rect x="3102" y="5800" width="2742" height="1357" fill="#FFFFFF"/><g><path d="M3371.5 6672.72 5793.5 6672.72M3371.5 6497.71 5793.5 6497.71M3371.5 6321.71 5793.5 6321.71M3371.5 6145.7 5793.5 6145.7M3371.5 5970.5 5793.5 5970.5" stroke="#D9D9D9" stroke-width="3.4375" stroke-linejoin="round" stroke-miterlimit="10" fill="none"/></g><g><path d="M3371.5 6848.5 5793.5 6848.5" stroke="#D9D9D9" stroke-width="3.4375" stroke-linejoin="round" stroke-miterlimit="10" fill="none" fill-rule="evenodd"/></g><g><path d="M3573 6811 3977.13 6812.22 4380.14 6812.22 4784.16 6813.22 5188.17 6814.22 5591 6818" stroke="#156082" stroke-width="10.3125" stroke-linecap="round" stroke-linejoin="round" stroke-miterlimit="10" fill="none"/></g><g><path d="M3584.27 6811.71C3584.27 6817.78 3579.35 6822.71 3573.27 6822.71 3567.2 6822.71 3562.27 6817.78 3562.27 6811.71 3562.27 6805.63 3567.2 6800.71 3573.27 6800.71 3579.35 6800.71 3584.27 6805.63 3584.27 6811.71Z" stroke="#156082" stroke-width="3.4375" stroke-linejoin="round" stroke-miterlimit="10" fill="#156082"/><path d="M3987.27 6812.71C3987.27 6818.78 3982.34 6823.71 3976.27 6823.71 3970.2 6823.71 3965.27 6818.78 3965.27 6812.71 3965.27 6806.63 3970.2 6801.71 3976.27 6801.71 3982.34 6801.71 3987.27 6806.63 3987.27 6812.71Z" stroke="#156082" stroke-width="3.4375" stroke-linejoin="round" stroke-miterlimit="10" fill="#156082"/><path d="M4391.27 6812.71C4391.27 6818.78 4386.34 6823.71 4380.27 6823.71 4374.19 6823.71 4369.27 6818.78 4369.27 6812.71 4369.27 6806.63 4374.19 6801.71 4380.27 6801.71 4386.34 6801.71 4391.27 6806.63 4391.27 6812.71Z" stroke="#156082" stroke-width="3.4375" stroke-linejoin="round" stroke-miterlimit="10" fill="#156082"/><path d="M4795.27 6813.71C4795.27 6819.78 4790.35 6824.71 4784.27 6824.71 4778.2 6824.71 4773.27 6819.78 4773.27 6813.71 4773.27 6807.63 4778.2 6802.71 4784.27 6802.71 4790.35 6802.71 4795.27 6807.63 4795.27 6813.71Z" stroke="#156082" stroke-width="3.4375" stroke-linejoin="round" stroke-miterlimit="10" fill="#156082"/><path d="M5198.27 6814.71C5198.27 6820.78 5193.35 6825.71 5187.27 6825.71 5181.2 6825.71 5176.27 6820.78 5176.27 6814.71 5176.27 6808.63 5181.2 6803.71 5187.27 6803.71 5193.35 6803.71 5198.27 6808.63 5198.27 6814.71Z" stroke="#156082" stroke-width="3.4375" stroke-linejoin="round" stroke-miterlimit="10" fill="#156082"/><path d="M5602.27 6818.71C5602.27 6824.78 5597.34 6829.71 5591.27 6829.71 5585.19 6829.71 5580.27 6824.78 5580.27 6818.71 5580.27 6812.63 5585.19 6807.71 5591.27 6807.71 5597.34 6807.71 5602.27 6812.63 5602.27 6818.71Z" stroke="#156082" stroke-width="3.4375" stroke-linejoin="round" stroke-miterlimit="10" fill="#156082"/></g><g><path d="M3573 6585 3977.13 6587.22 4380.14 6589.22 4784.16 6593.22 5188.17 6601.22 5591 6604" stroke="#E97132" stroke-width="10.3125" stroke-linecap="round" stroke-linejoin="round" stroke-miterlimit="10" fill="none"/></g><g><path d="M3584.27 6585.71C3584.27 6591.78 3579.35 6596.71 3573.27 6596.71 3567.2 6596.71 3562.27 6591.78 3562.27 6585.71 3562.27 6579.63 3567.2 6574.71 3573.27 6574.71 3579.35 6574.71 3584.27 6579.63 3584.27 6585.71Z" stroke="#E97132" stroke-width="3.4375" stroke-linejoin="round" stroke-miterlimit="10" fill="#E97132"/><path d="M3987.27 6587.71C3987.27 6593.78 3982.34 6598.71 3976.27 6598.71 3970.2 6598.71 3965.27 6593.78 3965.27 6587.71 3965.27 6581.63 3970.2 6576.71 3976.27 6576.71 3982.34 6576.71 3987.27 6581.63 3987.27 6587.71Z" stroke="#E97132" stroke-width="3.4375" stroke-linejoin="round" stroke-miterlimit="10" fill="#E97132"/><path d="M4391.27 6589.71C4391.27 6595.78 4386.34 6600.71 4380.27 6600.71 4374.19 6600.71 4369.27 6595.78 4369.27 6589.71 4369.27 6583.63 4374.19 6578.71 4380.27 6578.71 4386.34 6578.71 4391.27 6583.63 4391.27 6589.71Z" stroke="#E97132" stroke-width="3.4375" stroke-linejoin="round" stroke-miterlimit="10" fill="#E97132"/><path d="M4795.27 6592.71C4795.27 6598.78 4790.35 6603.71 4784.27 6603.71 4778.2 6603.71 4773.27 6598.78 4773.27 6592.71 4773.27 6586.63 4778.2 6581.71 4784.27 6581.71 4790.35 6581.71 4795.27 6586.63 4795.27 6592.71Z" stroke="#E97132" stroke-width="3.4375" stroke-linejoin="round" stroke-miterlimit="10" fill="#E97132"/><path d="M5198.27 6601.71C5198.27 6607.78 5193.35 6612.71 5187.27 6612.71 5181.2 6612.71 5176.27 6607.78 5176.27 6601.71 5176.27 6595.63 5181.2 6590.71 5187.27 6590.71 5193.35 6590.71 5198.27 6595.63 5198.27 6601.71Z" stroke="#E97132" stroke-width="3.4375" stroke-linejoin="round" stroke-miterlimit="10" fill="#E97132"/><path d="M5602.27 6604.71C5602.27 6610.78 5597.34 6615.71 5591.27 6615.71 5585.19 6615.71 5580.27 6610.78 5580.27 6604.71 5580.27 6598.63 5585.19 6593.71 5591.27 6593.71 5597.34 6593.71 5602.27 6598.63 5602.27 6604.71Z" stroke="#E97132" stroke-width="3.4375" stroke-linejoin="round" stroke-miterlimit="10" fill="#E97132"/></g><g><path d="M3573 6815 3977.13 6815 4380.14 6815.22 4784.16 6816.22 5188.17 6817.22 5591 6819" stroke="#196B24" stroke-width="10.3125" stroke-linecap="round" stroke-linejoin="round" stroke-miterlimit="10" fill="none"/></g><g><path d="M3584.27 6814.71C3584.27 6820.78 3579.35 6825.71 3573.27 6825.71 3567.2 6825.71 3562.27 6820.78 3562.27 6814.71 3562.27 6808.63 3567.2 6803.71 3573.27 6803.71 3579.35 6803.71 3584.27 6808.63 3584.27 6814.71Z" stroke="#196B24" stroke-width="3.4375" stroke-linejoin="round" stroke-miterlimit="10" fill="#196B24"/><path d="M3987.27 6814.71C3987.27 6820.78 3982.34 6825.71 3976.27 6825.71 3970.2 6825.71 3965.27 6820.78 3965.27 6814.71 3965.27 6808.63 3970.2 6803.71 3976.27 6803.71 3982.34 6803.71 3987.27 6808.63 3987.27 6814.71Z" stroke="#196B24" stroke-width="3.4375" stroke-linejoin="round" stroke-miterlimit="10" fill="#196B24"/><path d="M4391.27 6815.71C4391.27 6821.78 4386.34 6826.71 4380.27 6826.71 4374.19 6826.71 4369.27 6821.78 4369.27 6815.71 4369.27 6809.63 4374.19 6804.71 4380.27 6804.71 4386.34 6804.71 4391.27 6809.63 4391.27 6815.71Z" stroke="#196B24" stroke-width="3.4375" stroke-linejoin="round" stroke-miterlimit="10" fill="#196B24"/><path d="M4795.27 6816.71C4795.27 6822.78 4790.35 6827.71 4784.27 6827.71 4778.2 6827.71 4773.27 6822.78 4773.27 6816.71 4773.27 6810.63 4778.2 6805.71 4784.27 6805.71 4790.35 6805.71 4795.27 6810.63 4795.27 6816.71Z" stroke="#196B24" stroke-width="3.4375" stroke-linejoin="round" stroke-miterlimit="10" fill="#196B24"/><path d="M5198.27 6816.71C5198.27 6822.78 5193.35 6827.71 5187.27 6827.71 5181.2 6827.71 5176.27 6822.78 5176.27 6816.71 5176.27 6810.63 5181.2 6805.71 5187.27 6805.71 5193.35 6805.71 5198.27 6810.63 5198.27 6816.71Z" stroke="#196B24" stroke-width="3.4375" stroke-linejoin="round" stroke-miterlimit="10" fill="#196B24"/><path d="M5602.27 6818.71C5602.27 6824.78 5597.34 6829.71 5591.27 6829.71 5585.19 6829.71 5580.27 6824.78 5580.27 6818.71 5580.27 6812.63 5585.19 6807.71 5591.27 6807.71 5597.34 6807.71 5602.27 6812.63 5602.27 6818.71Z" stroke="#196B24" stroke-width="3.4375" stroke-linejoin="round" stroke-miterlimit="10" fill="#196B24"/></g><g><path d="M3573 6142 3977.13 6422.21 4380.14 6592.22 4784.16 6699.22 5188.17 6768.22 5591 6807" stroke="#0F9ED5" stroke-width="10.3125" stroke-linecap="round" stroke-linejoin="round" stroke-miterlimit="10" fill="none"/></g><g><path d="M3584.27 6142.71C3584.27 6148.78 3579.35 6153.71 3573.27 6153.71 3567.2 6153.71 3562.27 6148.78 3562.27 6142.71 3562.27 6136.63 3567.2 6131.71 3573.27 6131.71 3579.35 6131.71 3584.27 6136.63 3584.27 6142.71Z" stroke="#0F9ED5" stroke-width="3.4375" stroke-linejoin="round" stroke-miterlimit="10" fill="#0F9ED5"/><path d="M3987.27 6422.71C3987.27 6428.78 3982.34 6433.71 3976.27 6433.71 3970.2 6433.71 3965.27 6428.78 3965.27 6422.71 3965.27 6416.63 3970.2 6411.71 3976.27 6411.71 3982.34 6411.71 3987.27 6416.63 3987.27 6422.71Z" stroke="#0F9ED5" stroke-width="3.4375" stroke-linejoin="round" stroke-miterlimit="10" fill="#0F9ED5"/><path d="M4391.27 6592.71C4391.27 6598.78 4386.34 6603.71 4380.27 6603.71 4374.19 6603.71 4369.27 6598.78 4369.27 6592.71 4369.27 6586.63 4374.19 6581.71 4380.27 6581.71 4386.34 6581.71 4391.27 6586.63 4391.27 6592.71Z" stroke="#0F9ED5" stroke-width="3.4375" stroke-linejoin="round" stroke-miterlimit="10" fill="#0F9ED5"/><path d="M4795.27 6698.71C4795.27 6704.78 4790.35 6709.71 4784.27 6709.71 4778.2 6709.71 4773.27 6704.78 4773.27 6698.71 4773.27 6692.63 4778.2 6687.71 4784.27 6687.71 4790.35 6687.71 4795.27 6692.63 4795.27 6698.71Z" stroke="#0F9ED5" stroke-width="3.4375" stroke-linejoin="round" stroke-miterlimit="10" fill="#0F9ED5"/><path d="M5198.27 6767.71C5198.27 6773.78 5193.35 6778.71 5187.27 6778.71 5181.2 6778.71 5176.27 6773.78 5176.27 6767.71 5176.27 6761.63 5181.2 6756.71 5187.27 6756.71 5193.35 6756.71 5198.27 6761.63 5198.27 6767.71Z" stroke="#0F9ED5" stroke-width="3.4375" stroke-linejoin="round" stroke-miterlimit="10" fill="#0F9ED5"/><path d="M5602.27 6806.71C5602.27 6812.78 5597.34 6817.71 5591.27 6817.71 5585.19 6817.71 5580.27 6812.78 5580.27 6806.71 5580.27 6800.63 5585.19 6795.71 5591.27 6795.71 5597.34 6795.71 5602.27 6800.63 5602.27 6806.71Z" stroke="#0F9ED5" stroke-width="3.4375" stroke-linejoin="round" stroke-miterlimit="10" fill="#0F9ED5"/></g><g><text fill="#595959" font-family="Aptos Narrow,Aptos Narrow_MSFontService,sans-serif" font-weight="400" font-stretch="semi-condensed" font-size="41" transform="matrix(1 0 0 1 3312.35 6860)">0</text></g><g><text fill="#595959" font-family="Aptos Narrow,Aptos Narrow_MSFontService,sans-serif" font-weight="400" font-stretch="semi-condensed" font-size="41" transform="matrix(1 0 0 1 3249.65 6685)">5000</text></g><g><text fill="#595959" font-family="Aptos Narrow,Aptos Narrow_MSFontService,sans-serif" font-weight="400" font-stretch="semi-condensed" font-size="41" transform="matrix(1 0 0 1 3228.75 6509)">10000</text></g><g><text fill="#595959" font-family="Aptos Narrow,Aptos Narrow_MSFontService,sans-serif" font-weight="400" font-stretch="semi-condensed" font-size="41" transform="matrix(1 0 0 1 3228.75 6333)">15000</text></g><g><text fill="#595959" font-family="Aptos Narrow,Aptos Narrow_MSFontService,sans-serif" font-weight="400" font-stretch="semi-condensed" font-size="41" transform="matrix(1 0 0 1 3228.75 6157)">20000</text></g><g><text fill="#595959" font-family="Aptos Narrow,Aptos Narrow_MSFontService,sans-serif" font-weight="400" font-stretch="semi-condensed" font-size="41" transform="matrix(1 0 0 1 3228.75 5982)">25000</text></g><g><text fill="#595959" font-family="Aptos Narrow,Aptos Narrow_MSFontService,sans-serif" font-weight="400" font-stretch="semi-condensed" font-size="41" transform="matrix(1 0 0 1 3562.72 6914)">1</text></g><g><text fill="#595959" font-family="Aptos Narrow,Aptos Narrow_MSFontService,sans-serif" font-weight="400" font-stretch="semi-condensed" font-size="41" transform="matrix(1 0 0 1 3966.38 6914)">2</text></g><g><text fill="#595959" font-family="Aptos Narrow,Aptos Narrow_MSFontService,sans-serif" font-weight="400" font-stretch="semi-condensed" font-size="41" transform="matrix(1 0 0 1 4370.05 6914)">4</text></g><g><text fill="#595959" font-family="Aptos Narrow,Aptos Narrow_MSFontService,sans-serif" font-weight="400" font-stretch="semi-condensed" font-size="41" transform="matrix(1 0 0 1 4773.72 6914)">8</text></g><g><text fill="#595959" font-family="Aptos Narrow,Aptos Narrow_MSFontService,sans-serif" font-weight="400" font-stretch="semi-condensed" font-size="41" transform="matrix(1 0 0 1 5166.93 6914)">16</text></g><g><text fill="#595959" font-family="Aptos Narrow,Aptos Narrow_MSFontService,sans-serif" font-weight="400" font-stretch="semi-condensed" font-size="41" transform="matrix(1 0 0 1 5570.6 6914)">32</text></g><g><text fill="#595959" font-family="Aptos Narrow,Aptos Narrow_MSFontService,sans-serif" font-weight="400" font-stretch="semi-condensed" font-size="46" transform="matrix(6.12323e-17 -1 1 6.12323e-17 3202.05 6524)">iters/250 ms </text></g><g><text fill="#595959" font-family="Aptos Narrow,Aptos Narrow_MSFontService,sans-serif" font-weight="400" font-stretch="semi-condensed" font-size="46" transform="matrix(1 0 0 1 4188.35 6982)">Number of try/finally blocks thrown through</text></g><g><text fill="#595959" font-family="Aptos Narrow,Aptos Narrow_MSFontService,sans-serif" font-weight="400" font-stretch="semi-condensed" font-size="64" transform="matrix(1 0 0 1 3836.32 5895)">Effect of try/finally handlers on throw performance</text></g><g><path d="M3390 7091 3478 7091" stroke="#156082" stroke-width="10.3125" stroke-linecap="round" stroke-linejoin="round" stroke-miterlimit="10" fill="none" fill-rule="evenodd"/></g><g><path d="M3445 7090C3445 7096.07 3440.07 7101 3434 7101 3427.92 7101 3423 7096.07 3423 7090 3423 7083.92 3427.92 7079 3434 7079 3440.07 7079 3445 7083.92 3445 7090Z" stroke="#156082" stroke-width="3.4375" stroke-linejoin="round" stroke-miterlimit="10" fill="#156082"/></g><g><text fill="#595959" font-family="Aptos Narrow,Aptos Narrow_MSFontService,sans-serif" font-weight="400" font-stretch="semi-condensed" font-size="41" transform="matrix(1 0 0 1 3487.76 7102)">Task Throw NoSuspend</text></g><g><path d="M3960 7091 4048 7091" stroke="#E97132" stroke-width="10.3125" stroke-linecap="round" stroke-linejoin="round" stroke-miterlimit="10" fill="none" fill-rule="evenodd"/></g><g><path d="M4015.02 7090C4015.02 7096.07 4010.31 7101 4004.5 7101 3998.69 7101 3993.98 7096.07 3993.98 7090 3993.98 7083.92 3998.69 7079 4004.5 7079 4010.31 7079 4015.02 7083.92 4015.02 7090Z" stroke="#E97132" stroke-width="3.4375" stroke-linejoin="round" stroke-miterlimit="10" fill="#E97132"/></g><g><text fill="#595959" font-family="Aptos Narrow,Aptos Narrow_MSFontService,sans-serif" font-weight="400" font-stretch="semi-condensed" font-size="41" transform="matrix(1 0 0 1 4057.34 7102)">Async2 Throw NoSuspend</text></g><g><path d="M4574 7091 4662 7091" stroke="#196B24" stroke-width="10.3125" stroke-linecap="round" stroke-linejoin="round" stroke-miterlimit="10" fill="none" fill-rule="evenodd"/></g><g><path d="M4628 7090C4628 7096.07 4623.08 7101 4617 7101 4610.92 7101 4606 7096.07 4606 7090 4606 7083.92 4610.92 7079 4617 7079 4623.08 7079 4628 7083.92 4628 7090Z" stroke="#196B24" stroke-width="3.4375" stroke-linejoin="round" stroke-miterlimit="10" fill="#196B24"/></g><g><text fill="#595959" font-family="Aptos Narrow,Aptos Narrow_MSFontService,sans-serif" font-weight="400" font-stretch="semi-condensed" font-size="41" transform="matrix(1 0 0 1 4671.06 7102)">Task Throw Suspend</text></g><g><path d="M5096 7091 5184 7091" stroke="#0F9ED5" stroke-width="10.3125" stroke-linecap="round" stroke-linejoin="round" stroke-miterlimit="10" fill="none" fill-rule="evenodd"/></g><g><path d="M5150 7090C5150 7096.07 5145.08 7101 5139 7101 5132.92 7101 5128 7096.07 5128 7090 5128 7083.92 5132.92 7079 5139 7079 5145.08 7079 5150 7083.92 5150 7090Z" stroke="#0F9ED5" stroke-width="3.4375" stroke-linejoin="round" stroke-miterlimit="10" fill="#0F9ED5"/></g><g><text fill="#595959" font-family="Aptos Narrow,Aptos Narrow_MSFontService,sans-serif" font-weight="400" font-stretch="semi-condensed" font-size="41" transform="matrix(1 0 0 1 5193.23 7102)">Async2 Throw Suspend</text></g><rect x="3102.5" y="5800.5" width="2742" height="1357" stroke="#D9D9D9" stroke-width="3.4375" stroke-linejoin="round" stroke-miterlimit="10" fill="none"/></g></svg>