<svg width="2893" height="1563" xmlns="http://www.w3.org/2000/svg" xmlns:xlink="http://www.w3.org/1999/xlink" xml:space="preserve" overflow="hidden"><defs><clipPath id="clip0"><rect x="736" y="1337" width="2893" height="1563"/></clipPath></defs><g clip-path="url(#clip0)" transform="translate(-736 -1337)"><rect x="737" y="1338" width="2890" height="1560" fill="#FFFFFF"/><g><path d="M1027.5 2481.58 3576.5 2481.58M1027.5 2373.58 3576.5 2373.58M1027.5 2265.57 3576.5 2265.57M1027.5 2157.57 3576.5 2157.57M1027.5 2049.57 3576.5 2049.57M1027.5 1940.56 3576.5 1940.56M1027.5 1832.56 3576.5 1832.56M1027.5 1724.56 3576.5 1724.56M1027.5 1616.55 3576.5 1616.55M1027.5 1508.5 3576.5 1508.5" stroke="#D9D9D9" stroke-width="3.4375" stroke-linejoin="round" stroke-miterlimit="10" fill="none"/></g><g><path d="M1069.04 2575.08 1107.04 2575.08 1107.04 2590 1069.04 2590ZM1433.05 2574.08 1472.05 2574.08 1472.05 2590 1433.05 2590ZM1797.06 2575.08 1836.06 2575.08 1836.06 2590 1797.06 2590ZM2162.07 2572.08 2200.07 2572.08 2200.07 2590 2162.07 2590ZM2526.08 2569.08 2564.08 2569.08 2564.08 2590 2526.08 2590ZM2890.09 2569.08 2928.1 2569.08 2928.1 2590 2890.09 2590ZM3254.11 2567.08 3292.11 2567.08 3292.11 2590 3254.11 2590Z" fill="#156082"/></g><g><path d="M1118.04 2575.08 1156.04 2575.08 1156.04 2590 1118.04 2590ZM1482.05 2575.08 1520.05 2575.08 1520.05 2590 1482.05 2590ZM1846.06 2576.08 1884.06 2576.08 1884.06 2590 1846.06 2590ZM2210.07 2573.08 2248.07 2573.08 2248.07 2590 2210.07 2590ZM2574.08 2569.08 2612.09 2569.08 2612.09 2590 2574.08 2590ZM2938.1 2568.08 2976.1 2568.08 2976.1 2590 2938.1 2590ZM3302.11 2567.08 3340.11 2567.08 3340.11 2590 3302.11 2590Z" fill="#E97132"/></g><g><path d="M1166.04 2572.08 1204.04 2572.08 1204.04 2590 1166.04 2590ZM1530.05 2572.08 1568.05 2572.08 1568.05 2590 1530.05 2590ZM1894.06 2570.08 1933.06 2570.08 1933.06 2590 1894.06 2590ZM2258.07 2569.08 2297.08 2569.08 2297.08 2590 2258.07 2590ZM2623.09 2566.08 2661.09 2566.08 2661.09 2590 2623.09 2590ZM2987.1 2556.08 3025.1 2556.08 3025.1 2590 2987.1 2590ZM3351.11 2546.08 3389.11 2546.08 3389.11 2590 3351.11 2590Z" fill="#196B24"/></g><g><path d="M1215.04 2447.08 1253.04 2447.08 1253.04 2590 1215.04 2590ZM1579.05 2454.08 1617.05 2454.08 1617.05 2590 1579.05 2590ZM1943.06 2477.08 1981.06 2477.08 1981.06 2590 1943.06 2590ZM2307.08 2503.08 2345.08 2503.08 2345.08 2590 2307.08 2590ZM2671.09 2512.08 2709.09 2512.08 2709.09 2590 2671.09 2590ZM3035.1 2517.08 3073.1 2517.08 3073.1 2590 3035.1 2590ZM3399.11 2523.08 3437.11 2523.08 3437.11 2590 3399.11 2590Z" fill="#0F9ED5"/></g><g><path d="M1263.04 2443.08 1301.04 2443.08 1301.04 2590 1263.04 2590ZM1627.05 2439.08 1665.05 2439.08 1665.05 2590 1627.05 2590ZM1991.07 2478.08 2029.07 2478.08 2029.07 2590 1991.07 2590ZM2355.08 2498.08 2394.08 2498.08 2394.08 2590 2355.08 2590ZM2719.09 2493.08 2758.09 2493.08 2758.09 2590 2719.09 2590ZM3084.1 2498.08 3122.1 2498.08 3122.1 2590 3084.1 2590ZM3448.11 2503.08 3486.11 2503.08 3486.11 2590 3448.11 2590Z" fill="#A02B93"/></g><g><path d="M1312.04 2408.08 1350.04 2408.08 1350.04 2590 1312.04 2590ZM1676.05 2401.08 1714.06 2401.08 1714.06 2590 1676.05 2590ZM2040.07 2390.08 2078.07 2390.08 2078.07 2590 2040.07 2590ZM2404.08 2352.08 2442.08 2352.08 2442.08 2590 2404.08 2590ZM2768.09 2238.07 2806.09 2238.07 2806.09 2590 2768.09 2590ZM3132.1 2022.07 3170.1 2022.07 3170.1 2590 3132.1 2590ZM3496.11 1628.05 3534.12 1628.05 3534.12 2590 3496.11 2590Z" fill="#4EA72E"/></g><g><path d="M1027.5 2589.5 3576.5 2589.5" stroke="#D9D9D9" stroke-width="3.4375" stroke-linejoin="round" stroke-miterlimit="10" fill="none" fill-rule="evenodd"/></g><g><text fill="#595959" font-family="Aptos Narrow,Aptos Narrow_MSFontService,sans-serif" font-weight="400" font-stretch="semi-condensed" font-size="41" transform="matrix(1 0 0 1 884.652 2601)">0.00%</text></g><g><text fill="#595959" font-family="Aptos Narrow,Aptos Narrow_MSFontService,sans-serif" font-weight="400" font-stretch="semi-condensed" font-size="41" transform="matrix(1 0 0 1 884.652 2493)">2.00%</text></g><g><text fill="#595959" font-family="Aptos Narrow,Aptos Narrow_MSFontService,sans-serif" font-weight="400" font-stretch="semi-condensed" font-size="41" transform="matrix(1 0 0 1 884.652 2385)">4.00%</text></g><g><text fill="#595959" font-family="Aptos Narrow,Aptos Narrow_MSFontService,sans-serif" font-weight="400" font-stretch="semi-condensed" font-size="41" transform="matrix(1 0 0 1 884.652 2277)">6.00%</text></g><g><text fill="#595959" font-family="Aptos Narrow,Aptos Narrow_MSFontService,sans-serif" font-weight="400" font-stretch="semi-condensed" font-size="41" transform="matrix(1 0 0 1 884.652 2169)">8.00%</text></g><g><text fill="#595959" font-family="Aptos Narrow,Aptos Narrow_MSFontService,sans-serif" font-weight="400" font-stretch="semi-condensed" font-size="41" transform="matrix(1 0 0 1 863.752 2061)">10.00%</text></g><g><text fill="#595959" font-family="Aptos Narrow,Aptos Narrow_MSFontService,sans-serif" font-weight="400" font-stretch="semi-condensed" font-size="41" transform="matrix(1 0 0 1 863.752 1952)">12.00%</text></g><g><text fill="#595959" font-family="Aptos Narrow,Aptos Narrow_MSFontService,sans-serif" font-weight="400" font-stretch="semi-condensed" font-size="41" transform="matrix(1 0 0 1 863.752 1844)">14.00%</text></g><g><text fill="#595959" font-family="Aptos Narrow,Aptos Narrow_MSFontService,sans-serif" font-weight="400" font-stretch="semi-condensed" font-size="41" transform="matrix(1 0 0 1 863.752 1736)">16.00%</text></g><g><text fill="#595959" font-family="Aptos Narrow,Aptos Narrow_MSFontService,sans-serif" font-weight="400" font-stretch="semi-condensed" font-size="41" transform="matrix(1 0 0 1 863.752 1628)">18.00%</text></g><g><text fill="#595959" font-family="Aptos Narrow,Aptos Narrow_MSFontService,sans-serif" font-weight="400" font-stretch="semi-condensed" font-size="41" transform="matrix(1 0 0 1 863.752 1520)">20.00%</text></g><g><text fill="#595959" font-family="Aptos Narrow,Aptos Narrow_MSFontService,sans-serif" font-weight="400" font-stretch="semi-condensed" font-size="41" transform="matrix(1 0 0 1 1199.13 2655)">1</text></g><g><text fill="#595959" font-family="Aptos Narrow,Aptos Narrow_MSFontService,sans-serif" font-weight="400" font-stretch="semi-condensed" font-size="41" transform="matrix(1 0 0 1 1563.21 2655)">2</text></g><g><text fill="#595959" font-family="Aptos Narrow,Aptos Narrow_MSFontService,sans-serif" font-weight="400" font-stretch="semi-condensed" font-size="41" transform="matrix(1 0 0 1 1927.3 2655)">4</text></g><g><text fill="#595959" font-family="Aptos Narrow,Aptos Narrow_MSFontService,sans-serif" font-weight="400" font-stretch="semi-condensed" font-size="41" transform="matrix(1 0 0 1 2291.39 2655)">8</text></g><g><text fill="#595959" font-family="Aptos Narrow,Aptos Narrow_MSFontService,sans-serif" font-weight="400" font-stretch="semi-condensed" font-size="41" transform="matrix(1 0 0 1 2645.03 2655)">16</text></g><g><text fill="#595959" font-family="Aptos Narrow,Aptos Narrow_MSFontService,sans-serif" font-weight="400" font-stretch="semi-condensed" font-size="41" transform="matrix(1 0 0 1 3009.11 2655)">32</text></g><g><text fill="#595959" font-family="Aptos Narrow,Aptos Narrow_MSFontService,sans-serif" font-weight="400" font-stretch="semi-condensed" font-size="41" transform="matrix(1 0 0 1 3373.2 2655)">64</text></g><g><text fill="#595959" font-family="Aptos Narrow,Aptos Narrow_MSFontService,sans-serif" font-weight="400" font-stretch="semi-condensed" font-size="46" transform="matrix(6.12323e-17 -1 1 6.12323e-17 837.054 2472)">iters/s  wirth throw divided by iter/s  with return</text></g><g><text fill="#595959" font-family="Aptos Narrow,Aptos Narrow_MSFontService,sans-serif" font-weight="400" font-stretch="semi-condensed" font-size="46" transform="matrix(1 0 0 1 2190.75 2723)">Stack Depth</text></g><g><text fill="#595959" font-family="Aptos Narrow,Aptos Narrow_MSFontService,sans-serif" font-weight="400" font-stretch="semi-condensed" font-size="64" transform="matrix(1 0 0 1 1509.65 1433)">Relative performance of throwing vs returning cleanly</text></g><g><rect x="1026" y="2820" width="23" height="23" fill="#156082"/></g><g><text fill="#595959" font-family="Aptos Narrow,Aptos Narrow_MSFontService,sans-serif" font-weight="400" font-stretch="semi-condensed" font-size="41" transform="matrix(1 0 0 1 1058.41 2843)">Task NoSuspend</text></g><g><rect x="1404" y="2820" width="23" height="23" fill="#E97132"/></g><g><text fill="#595959" font-family="Aptos Narrow,Aptos Narrow_MSFontService,sans-serif" font-weight="400" font-stretch="semi-condensed" font-size="41" transform="matrix(1 0 0 1 1436.23 2843)">ValueTask NoSuspend</text></g><g><rect x="1875" y="2820" width="22.9996" height="23" fill="#196B24"/></g><g><text fill="#595959" font-family="Aptos Narrow,Aptos Narrow_MSFontService,sans-serif" font-weight="400" font-stretch="semi-condensed" font-size="41" transform="matrix(1 0 0 1 1907.12 2843)">Async2 NoSuspend</text></g><g><rect x="2297" y="2820" width="22" height="23" fill="#0F9ED5"/></g><g><text fill="#595959" font-family="Aptos Narrow,Aptos Narrow_MSFontService,sans-serif" font-weight="400" font-stretch="semi-condensed" font-size="41" transform="matrix(1 0 0 1 2329.08 2843)">Task Suspend</text></g><g><rect x="2627" y="2820" width="23" height="23" fill="#A02B93"/></g><g><text fill="#595959" font-family="Aptos Narrow,Aptos Narrow_MSFontService,sans-serif" font-weight="400" font-stretch="semi-condensed" font-size="41" transform="matrix(1 0 0 1 2659.48 2843)">ValueTask Suspend</text></g><g><rect x="3051" y="2820" width="22" height="23" fill="#4EA72E"/></g><g><text fill="#595959" font-family="Aptos Narrow,Aptos Narrow_MSFontService,sans-serif" font-weight="400" font-stretch="semi-condensed" font-size="41" transform="matrix(1 0 0 1 3082.95 2843)">Async2 Suspend</text></g><rect x="737.5" y="1338.5" width="2890" height="1560" stroke="#D9D9D9" stroke-width="3.4375" stroke-linejoin="round" stroke-miterlimit="10" fill="none"/></g></svg>