<?xml version="1.0" encoding="UTF-8" standalone="no"?>
<!DOCTYPE svg PUBLIC "-//W3C//DTD SVG 1.1//EN" "http://www.w3.org/Graphics/SVG/1.1/DTD/svg11.dtd">
<!-- Generated by Microsoft Visio, SVG Export Unloadability.svg Page-1 -->
<svg xmlns="http://www.w3.org/2000/svg" xmlns:xlink="http://www.w3.org/1999/xlink" xmlns:ev="http://www.w3.org/2001/xml-events"
		xmlns:v="http://schemas.microsoft.com/visio/2003/SVGExtensions/" width="8.11008in" height="7.55714in"
		viewBox="0 0 583.926 544.114" xml:space="preserve" color-interpolation-filters="sRGB" class="st19">
	<v:documentProperties v:langID="1033" v:viewMarkup="false">
		<v:userDefs>
			<v:ud v:nameU="msvNoAutoConnect" v:val="VT0(1):26"/>
		</v:userDefs>
	</v:documentProperties>

	<style type="text/css">
	<![CDATA[
		.st1 {fill:#f59d56;stroke:#000000;stroke-linecap:round;stroke-linejoin:round;stroke-width:0.75}
		.st2 {fill:#ffffff;font-family:Calibri;font-size:1.00001em}
		.st3 {font-size:1em}
		.st4 {fill:#f59d56;stroke:#00b050;stroke-linecap:round;stroke-linejoin:round;stroke-width:2.25}
		.st5 {fill:#0070c0;stroke:#00b050;stroke-linecap:round;stroke-linejoin:round;stroke-width:2.25}
		.st6 {fill:#0070c0;stroke:#000000;stroke-linecap:round;stroke-linejoin:round;stroke-width:0.75}
		.st7 {marker-end:url(#mrkr2-52);stroke:#000000;stroke-dasharray:5.25,3.75;stroke-linecap:round;stroke-linejoin:round;stroke-width:0.75}
		.st8 {fill:#000000;fill-opacity:1;stroke:#000000;stroke-opacity:1;stroke-width:0.22935779816514}
		.st9 {fill:#ffffff;stroke:none;stroke-linecap:butt;stroke-width:7.2}
		.st10 {fill:#000000;font-family:Calibri;font-size:0.666664em}
		.st11 {marker-end:url(#mrkr2-52);stroke:#000000;stroke-linecap:round;stroke-linejoin:round;stroke-width:0.75}
		.st12 {marker-end:url(#mrkr2-125);stroke:#00b050;stroke-linecap:round;stroke-linejoin:round;stroke-width:0.75}
		.st13 {fill:#00b050;fill-opacity:1;stroke:#00b050;stroke-opacity:1;stroke-width:0.22935779816514}
		.st14 {fill:none;stroke:none;stroke-linecap:round;stroke-linejoin:round;stroke-width:0.75}
		.st15 {fill:#000000;font-family:Calibri;font-size:1.00001em}
		.st16 {stroke:#ffc000;stroke-linecap:round;stroke-linejoin:round;stroke-width:0.75}
		.st17 {fill:#ea700d;font-family:Calibri;font-size:1.00001em}
		.st18 {fill:#0070c0;font-family:Calibri;font-size:1.00001em}
		.st19 {fill:none;fill-rule:evenodd;font-size:12px;overflow:visible;stroke-linecap:square;stroke-miterlimit:3}
	]]>
	</style>

	<defs id="Markers">
		<g id="lend2">
			<path d="M 1 1 L 0 0 L 1 -1 L 1 1 " style="stroke:none"/>
		</g>
		<marker id="mrkr2-52" class="st8" v:arrowType="2" v:arrowSize="2" v:setback="4.36" refX="-4.36" orient="auto"
				markerUnits="strokeWidth" overflow="visible">
			<use xlink:href="#lend2" transform="scale(-4.36,-4.36) "/>
		</marker>
		<marker id="mrkr2-125" class="st13" v:arrowType="2" v:arrowSize="2" v:setback="4.36" refX="-4.36" orient="auto"
				markerUnits="strokeWidth" overflow="visible">
			<use xlink:href="#lend2" transform="scale(-4.36,-4.36) "/>
		</marker>
	</defs>
	<g v:mID="0" v:index="1" v:groupContext="foregroundPage">
		<title>Page-1</title>
		<v:pageProperties v:drawingScale="1" v:pageScale="1" v:drawingUnits="19" v:shadowOffsetX="9" v:shadowOffsetY="-9"/>
		<v:layer v:name="Connector" v:index="0"/>
		<g id="shape1-1" v:mID="1" v:groupContext="shape" transform="translate(255.051,-432.375)">
			<title>Sheet.1</title>
			<desc>Object A1</desc>
			<v:textBlock v:margins="rect(4,4,4,4)"/>
			<v:textRect cx="27" cy="512.614" width="54" height="63"/>
			<rect x="0" y="481.114" width="54" height="63" class="st1"/>
			<text x="10.91" y="509.01" class="st2" v:langID="1033"><v:paragraph v:horizAlign="1"/><v:tabList/>Object<v:newlineChar/><tspan
						x="20.49" dy="1.2em" class="st3">A1</tspan></text>		</g>
		<g id="shape2-5" v:mID="2" v:groupContext="shape" transform="translate(341.676,-432.375)">
			<title>Sheet.2</title>
			<desc>Object A2</desc>
			<v:textBlock v:margins="rect(4,4,4,4)"/>
			<v:textRect cx="27" cy="512.614" width="54" height="63"/>
			<rect x="0" y="481.114" width="54" height="63" class="st1"/>
			<text x="10.91" y="509.01" class="st2" v:langID="1033"><v:paragraph v:horizAlign="1"/><v:tabList/>Object<v:newlineChar/><tspan
						x="20.49" dy="1.2em" class="st3">A2</tspan></text>		</g>
		<g id="shape3-9" v:mID="3" v:groupContext="shape" transform="translate(453.051,-432.375)">
			<title>Sheet.3</title>
			<desc>Object B</desc>
			<v:textBlock v:margins="rect(4,4,4,4)"/>
			<v:textRect cx="27" cy="512.614" width="54" height="63"/>
			<rect x="0" y="481.114" width="54" height="63" class="st1"/>
			<text x="10.91" y="509.01" class="st2" v:langID="1033"><v:paragraph v:horizAlign="1"/><v:tabList/>Object<v:newlineChar/><tspan
						x="23.74" dy="1.2em" class="st3">B</tspan></text>		</g>
		<g id="shape4-13" v:mID="4" v:groupContext="shape" transform="translate(255.051,-324.375)">
			<title>Sheet.4</title>
			<desc>RuntimeAssembly A</desc>
			<v:textBlock v:margins="rect(4,4,4,4)"/>
			<v:textRect cx="70.3125" cy="512.614" width="140.63" height="63"/>
			<rect x="0" y="481.114" width="140.625" height="63" class="st1"/>
			<text x="26.4" y="509.01" class="st2" v:langID="1033"><v:paragraph v:horizAlign="1"/><v:tabList/>RuntimeAssembly<v:newlineChar/><tspan
						x="66.84" dy="1.2em" class="st3">A</tspan></text>		</g>
		<g id="shape5-17" v:mID="5" v:groupContext="shape" transform="translate(409.738,-324.375)">
			<title>Sheet.5</title>
			<desc>RuntimeAssembly B</desc>
			<v:textBlock v:margins="rect(4,4,4,4)"/>
			<v:textRect cx="70.3125" cy="512.614" width="140.63" height="63"/>
			<rect x="0" y="481.114" width="140.625" height="63" class="st1"/>
			<text x="26.4" y="509.01" class="st2" v:langID="1033"><v:paragraph v:horizAlign="1"/><v:tabList/>RuntimeAssembly<v:newlineChar/><tspan
						x="67.05" dy="1.2em" class="st3">B</tspan></text>		</g>
		<g id="shape6-21" v:mID="6" v:groupContext="shape" transform="translate(48.0507,-234.375)">
			<title>Sheet.6</title>
			<desc>LoaderAllocator</desc>
			<v:textBlock v:margins="rect(4,4,4,4)"/>
			<v:textRect cx="70.3125" cy="512.614" width="140.63" height="63"/>
			<rect x="0" y="481.114" width="140.625" height="63" class="st4"/>
			<text x="31.46" y="516.21" class="st2" v:langID="1033"><v:paragraph v:horizAlign="1"/><v:tabList/>LoaderAllocator</text>		</g>
		<g id="shape7-24" v:mID="7" v:groupContext="shape" transform="translate(255.051,-234.375)">
			<title>Sheet.7</title>
			<desc>LoaderAllocatorScout (finalizable)</desc>
			<v:textBlock v:margins="rect(4,4,4,4)"/>
			<v:textRect cx="70.3125" cy="512.614" width="140.63" height="63"/>
			<rect x="0" y="481.114" width="140.625" height="63" class="st4"/>
			<text x="17.84" y="509.01" class="st2" v:langID="1033"><v:paragraph v:horizAlign="1"/><v:tabList/>LoaderAllocatorScout<v:newlineChar/><tspan
						x="41.93" dy="1.2em" class="st3">(finalizable)</tspan></text>		</g>
		<g id="shape8-28" v:mID="8" v:groupContext="shape" transform="translate(409.738,-234.375)">
			<title>Sheet.8</title>
			<desc>AssemblyLoadContext (finalizable)</desc>
			<v:textBlock v:margins="rect(4,4,4,4)"/>
			<v:textRect cx="70.3125" cy="512.614" width="140.63" height="63"/>
			<rect x="0" y="481.114" width="140.625" height="63" class="st1"/>
			<text x="16.29" y="509.01" class="st2" v:langID="1033"><v:paragraph v:horizAlign="1"/><v:tabList/>AssemblyLoadContext<v:newlineChar/><tspan
						x="41.93" dy="1.2em" class="st3">(finalizable)</tspan></text>		</g>
		<g id="shape9-32" v:mID="9" v:groupContext="shape" transform="translate(48.0507,-108.375)">
			<title>Sheet.9</title>
			<desc>AssemblyLoaderAllocator (ref counted)</desc>
			<v:textBlock v:margins="rect(4,4,4,4)"/>
			<v:textRect cx="70.3125" cy="512.614" width="140.63" height="63"/>
			<rect x="0" y="481.114" width="140.625" height="63" class="st5"/>
			<text x="8.27" y="509.01" class="st2" v:langID="1033"><v:paragraph v:horizAlign="1"/><v:tabList/>AssemblyLoaderAllocator<v:newlineChar/><tspan
						x="38.26" dy="1.2em" class="st3">(ref counted)</tspan></text>		</g>
		<g id="shape10-36" v:mID="10" v:groupContext="shape" transform="translate(318.051,-108.375)">
			<title>Sheet.10</title>
			<desc>CustomAssemblyBinder</desc>
			<v:textBlock v:margins="rect(4,4,4,4)"/>
			<v:textRect cx="99" cy="512.614" width="198" height="63"/>
			<rect x="0" y="481.114" width="198" height="63" class="st6"/>
			<text x="41.12" y="516.21" class="st2" v:langID="1033"><v:paragraph v:horizAlign="1"/><v:tabList/>CustomAssemblyBinder</text>		</g>
		<g id="shape11-39" v:mID="11" v:groupContext="shape" transform="translate(48.0507,-18.375)">
			<title>Sheet.11</title>
			<desc>DomainAssembly A</desc>
			<v:textBlock v:margins="rect(4,4,4,4)"/>
			<v:textRect cx="70.3125" cy="512.614" width="140.63" height="63"/>
			<rect x="0" y="481.114" width="140.625" height="63" class="st6"/>
			<text x="28.07" y="509.01" class="st2" v:langID="1033"><v:paragraph v:horizAlign="1"/><v:tabList/>DomainAssembly<v:newlineChar/><tspan
						x="66.84" dy="1.2em" class="st3">A</tspan></text>		</g>
		<g id="shape12-43" v:mID="12" v:groupContext="shape" transform="translate(246.051,-18.375)">
			<title>Sheet.12</title>
			<desc>DomainAssembly B</desc>
			<v:textBlock v:margins="rect(4,4,4,4)"/>
			<v:textRect cx="70.3125" cy="512.614" width="140.63" height="63"/>
			<rect x="0" y="481.114" width="140.625" height="63" class="st6"/>
			<text x="28.07" y="509.01" class="st2" v:langID="1033"><v:paragraph v:horizAlign="1"/><v:tabList/>DomainAssembly<v:newlineChar/><tspan
						x="67.05" dy="1.2em" class="st3">B</tspan></text>		</g>
		<g id="shape14-47" v:mID="14" v:groupContext="shape" v:layerMember="0" transform="translate(255.051,-463.875)">
			<title>Dynamic connector</title>
			<desc>Via MethodTable</desc>
			<v:textBlock v:margins="rect(4,4,4,4)"/>
			<v:textRect cx="-90" cy="545.239" width="65.71" height="17.6036"/>
			<path d="M0 544.11 L-180.24 544.11 L-180.24 707.34" class="st7"/>
			<rect v:rectContext="textBkgnd" x="-117.945" y="540.44" width="55.8899" height="9.59985" class="st9"/>
			<text x="-117.94" y="547.64" class="st10" v:langID="1033"><v:paragraph v:horizAlign="1"/><v:tabList/>Via MethodTable</text>		</g>
		<g id="shape15-55" v:mID="15" v:groupContext="shape" v:layerMember="0" transform="translate(368.676,-495.375)">
			<title>Dynamic connector.15</title>
			<desc>Via MethodTable</desc>
			<v:textBlock v:margins="rect(4,4,4,4)"/>
			<v:textRect cx="-203.625" cy="530.614" width="65.71" height="17.6036"/>
			<path d="M0 544.11 L0 530.61 L-301.65 530.61 L-301.65 738.84" class="st7"/>
			<rect v:rectContext="textBkgnd" x="-231.57" y="525.815" width="55.8899" height="9.59985" class="st9"/>
			<text x="-231.57" y="533.01" class="st10" v:langID="1033"><v:paragraph v:horizAlign="1"/><v:tabList/>Via MethodTable</text>		</g>
		<g id="shape16-62" v:mID="16" v:groupContext="shape" v:layerMember="0" transform="translate(480.051,-495.375)">
			<title>Dynamic connector.16</title>
			<desc>Via MethodTable</desc>
			<v:textBlock v:margins="rect(4,4,4,4)"/>
			<v:textRect cx="-315" cy="522.177" width="65.71" height="17.6036"/>
			<path d="M0 544.11 L0 521.61 L-420.32 521.61 L-420.32 738.84" class="st7"/>
			<rect v:rectContext="textBkgnd" x="-342.945" y="517.377" width="55.8899" height="9.59985" class="st9"/>
			<text x="-342.94" y="524.58" class="st10" v:langID="1033"><v:paragraph v:horizAlign="1"/><v:tabList/>Via MethodTable</text>		</g>
		<g id="shape21-69" v:mID="21" v:groupContext="shape" v:layerMember="0" transform="translate(131.742,-297.375)">
			<title>Dynamic connector.21</title>
			<desc>Reference</desc>
			<v:textBlock v:margins="rect(4,4,4,4)"/>
			<v:textRect cx="53.5591" cy="427.114" width="42.9" height="17.6036"/>
			<path d="M0 544.11 L0 427.84 L348.31 427.84 L348.31 450.84" class="st11"/>
			<rect v:rectContext="textBkgnd" x="37.0185" y="422.315" width="33.0815" height="9.59985" class="st9"/>
			<text x="37.02" y="429.51" class="st10" v:langID="1033"><v:paragraph v:horizAlign="1"/><v:tabList/>Reference</text>		</g>
		<g id="shape22-76" v:mID="22" v:groupContext="shape" v:layerMember="0" transform="translate(140.97,-297.375)">
			<title>Dynamic connector.22</title>
			<desc>Reference</desc>
			<v:textBlock v:margins="rect(4,4,4,4)"/>
			<v:textRect cx="46.353" cy="440.493" width="42.9" height="17.6036"/>
			<path d="M0 544.11 L0 440.49 L182.71 440.49 L182.71 450.84" class="st11"/>
			<rect v:rectContext="textBkgnd" x="29.8124" y="435.693" width="33.0815" height="9.59985" class="st9"/>
			<text x="29.81" y="442.89" class="st10" v:langID="1033"><v:paragraph v:horizAlign="1"/><v:tabList/>Reference</text>		</g>
		<g id="shape23-83" v:mID="23" v:groupContext="shape" v:layerMember="0" transform="translate(255.051,-355.875)">
			<title>Dynamic connector.23</title>
			<desc>Reference (sync root)</desc>
			<v:textBlock v:margins="rect(4,4,4,4)"/>
			<v:textRect cx="-23.625" cy="544.114" width="44.72" height="27.2035"/>
			<path d="M0 544.11 L-92.68 544.11 L-92.68 599.34" class="st11"/>
			<rect v:rectContext="textBkgnd" x="-41.076" y="534.515" width="34.9022" height="19.1997" class="st9"/>
			<text x="-40.17" y="541.71" class="st10" v:langID="1033"><v:paragraph v:horizAlign="1"/><v:tabList/>Reference<v:newlineChar/><tspan
						x="-41.08" dy="1.2em" class="st3">(sync root)</tspan></text>		</g>
		<g id="shape24-91" v:mID="24" v:groupContext="shape" v:layerMember="0" transform="translate(480.051,-324.375)">
			<title>Dynamic connector.24</title>
			<desc>Reference (sync root)</desc>
			<v:textBlock v:margins="rect(4,4,4,4)"/>
			<v:textRect cx="-153.608" cy="557.006" width="44.72" height="27.2035"/>
			<path d="M0 544.11 L0 557.01 L-306 557.01 L-306 567.84" class="st11"/>
			<rect v:rectContext="textBkgnd" x="-171.059" y="547.406" width="34.9022" height="19.1997" class="st9"/>
			<text x="-170.15" y="554.61" class="st10" v:langID="1033"><v:paragraph v:horizAlign="1"/><v:tabList/>Reference<v:newlineChar/><tspan
						x="-171.06" dy="1.2em" class="st3">(sync root)</tspan></text>		</g>
		<g id="shape25-99" v:mID="25" v:groupContext="shape" v:layerMember="0" transform="translate(188.676,-256.875)">
			<title>Dynamic connector.25</title>
			<desc>Reference</desc>
			<v:textBlock v:margins="rect(4,4,4,4)"/>
			<v:textRect cx="33.1875" cy="535.114" width="42.9" height="17.6036"/>
			<path d="M0 535.11 L63.1 535.11" class="st11"/>
			<rect v:rectContext="textBkgnd" x="16.6469" y="530.315" width="33.0815" height="9.59985" class="st9"/>
			<text x="16.65" y="537.51" class="st10" v:langID="1033"><v:paragraph v:horizAlign="1"/><v:tabList/>Reference</text>		</g>
		<g id="shape26-106" v:mID="26" v:groupContext="shape" v:layerMember="0" transform="translate(111.051,-171.375)">
			<title>Dynamic connector.26</title>
			<desc>Weak handle</desc>
			<v:textBlock v:margins="rect(4,4,4,4)"/>
			<v:textRect cx="10.6875" cy="535.114" width="52.45" height="17.6036"/>
			<path d="M9 544.11 L9 484.38" class="st11"/>
			<rect v:rectContext="textBkgnd" x="-10.6286" y="530.315" width="42.6324" height="9.59985" class="st9"/>
			<text x="-10.63" y="537.51" class="st10" v:langID="1033"><v:paragraph v:horizAlign="1"/><v:tabList/>Weak handle</text>		</g>
		<g id="shape27-113" v:mID="27" v:groupContext="shape" v:layerMember="0" transform="translate(188.676,-147.78)">
			<title>Dynamic connector.27</title>
			<desc>Pointer</desc>
			<v:textBlock v:margins="rect(4,4,4,4)"/>
			<v:textRect cx="64.6875" cy="535.114" width="40" height="17.6036"/>
			<path d="M0 535.11 L126.1 535.11" class="st11"/>
			<rect v:rectContext="textBkgnd" x="52.7677" y="530.315" width="23.8395" height="9.59985" class="st9"/>
			<text x="52.77" y="537.51" class="st10" v:langID="1033"><v:paragraph v:horizAlign="1"/><v:tabList/>Pointer</text>		</g>
		<g id="shape28-120" v:mID="28" v:groupContext="shape" v:layerMember="0" transform="translate(318.051,-117.375)">
			<title>Dynamic connector.28</title>
			<desc>Pointer</desc>
			<v:textBlock v:margins="rect(4,4,4,4)"/>
			<v:textRect cx="-64.6875" cy="535.114" width="40" height="17.6036"/>
			<path d="M0 535.11 L-126.1 535.11" class="st12"/>
			<rect v:rectContext="textBkgnd" x="-76.6073" y="530.315" width="23.8395" height="9.59985" class="st9"/>
			<text x="-76.61" y="537.51" class="st10" v:langID="1033"><v:paragraph v:horizAlign="1"/><v:tabList/>Pointer</text>		</g>
		<g id="shape29-128" v:mID="29" v:groupContext="shape" v:layerMember="0" transform="translate(109.363,-108.375)">
			<title>Dynamic connector.29</title>
			<desc>Pointer</desc>
			<v:textBlock v:margins="rect(4,4,4,4)"/>
			<v:textRect cx="9" cy="557.614" width="40" height="17.6036"/>
			<path d="M9 544.11 L9 567.84" class="st11"/>
			<rect v:rectContext="textBkgnd" x="-2.91983" y="552.815" width="23.8395" height="9.59985" class="st9"/>
			<text x="-2.92" y="560.01" class="st10" v:langID="1033"><v:paragraph v:horizAlign="1"/><v:tabList/>Pointer</text>		</g>
		<g id="shape30-135" v:mID="30" v:groupContext="shape" v:layerMember="0" transform="translate(188.676,-40.875)">
			<title>Dynamic connector.30</title>
			<desc>Pointer</desc>
			<v:textBlock v:margins="rect(4,4,4,4)"/>
			<v:textRect cx="28.6875" cy="535.114" width="40" height="17.6036"/>
			<path d="M0 535.11 L54.1 535.11" class="st12"/>
			<rect v:rectContext="textBkgnd" x="16.7677" y="530.315" width="23.8395" height="9.59985" class="st9"/>
			<text x="16.77" y="537.51" class="st10" v:langID="1033"><v:paragraph v:horizAlign="1"/><v:tabList/>Pointer</text>		</g>
		<g id="shape31-142" v:mID="31" v:groupContext="shape" v:layerMember="0" transform="translate(386.676,-42)">
			<title>Dynamic connector.31</title>
			<path d="M0 535.11 L45.1 535.11" class="st12"/>
		</g>
		<g id="shape32-147" v:mID="32" v:groupContext="shape" v:layerMember="0" transform="translate(410.999,-171.375)">
			<title>Dynamic connector.32</title>
			<desc>Long weak handle</desc>
			<v:textBlock v:margins="rect(4,4,4,4)"/>
			<v:textRect cx="9.75102" cy="529.864" width="68.41" height="17.6036"/>
			<path d="M9 544.11 L9 484.38" class="st11"/>
			<rect v:rectContext="textBkgnd" x="-19.5454" y="525.065" width="58.5931" height="9.59985" class="st9"/>
			<text x="-19.55" y="532.26" class="st10" v:langID="1033"><v:paragraph v:horizAlign="1"/><v:tabList/>Long weak handle</text>		</g>
		<g id="shape33-154" v:mID="33" v:groupContext="shape" v:layerMember="0" transform="translate(273.613,-234.375)">
			<title>Dynamic connector.33</title>
			<desc>Pointer</desc>
			<v:textBlock v:margins="rect(4,4,4,4)"/>
			<v:textRect cx="-15.1875" cy="553.114" width="40" height="17.6036"/>
			<path d="M0 544.11 L-100.71 605.41" class="st11"/>
			<rect v:rectContext="textBkgnd" x="-27.1073" y="548.315" width="23.8395" height="9.59985" class="st9"/>
			<text x="-27.11" y="555.51" class="st10" v:langID="1033"><v:paragraph v:horizAlign="1"/><v:tabList/>Pointer</text>		</g>
		<g id="shape34-161" v:mID="34" v:groupContext="shape" v:layerMember="0" transform="translate(342.379,-171.375)">
			<title>Dynamic connector.34</title>
			<desc>Strong handle</desc>
			<v:textBlock v:margins="rect(4,4,4,4)"/>
			<v:textRect cx="-25.4064" cy="533.679" width="55.22" height="17.6036"/>
			<path d="M0 544.11 L-98.99 502.36 A3 3 -180 0 0 -104.51 500.03 L-150.69 480.55" class="st12"/>
			<rect v:rectContext="textBkgnd" x="-48.1052" y="528.879" width="45.398" height="9.59985" class="st9"/>
			<text x="-48.11" y="536.08" class="st10" v:langID="1033"><v:paragraph v:horizAlign="1"/><v:tabList/>Strong handle</text>		</g>
		<g id="shape35-168" v:mID="35" v:groupContext="shape" transform="translate(431.676,-43.0313)">
			<title>Sheet.35</title>
			<desc>...</desc>
			<v:textBlock v:margins="rect(4,4,4,4)"/>
			<v:textRect cx="12.375" cy="532.771" width="24.75" height="22.6875"/>
			<rect x="0" y="521.427" width="24.75" height="22.6875" class="st14"/>
			<text x="7.83" y="536.37" class="st15" v:langID="1033"><v:paragraph v:horizAlign="1"/><v:tabList/>...</text>		</g>
		<g id="shape36-171" v:mID="36" v:groupContext="shape" v:layerMember="0" transform="translate(25.6723,-193.449)">
			<title>Dynamic connector.36</title>
			<path d="M0 535.54 L91.38 535.4 A3 3 0 1 1 97.38 535.39 L192.3 535.24 A3 3 0 1 1 198.3 535.23 L240.14 535.16 A3 3 0 0
						 1 246.14 535.15 L391.33 534.92 A3 3 0 1 1 397.33 534.91 L466.33 534.8 A3 3 0 0 1 472.33 534.8 L539.88 534.69"
					class="st16"/>
		</g>
		<g id="shape37-174" v:mID="37" v:groupContext="shape" transform="translate(25.6723,-207.375)">
			<title>Sheet.37</title>
			<desc>Managed side</desc>
			<v:textBlock v:margins="rect(4,4,4,4)"/>
			<v:textRect cx="44.1562" cy="537.083" width="88.32" height="14.0625"/>
			<rect x="0" y="530.052" width="88.3125" height="14.0625" class="st14"/>
			<text x="9.95" y="540.68" class="st17" v:langID="1033"><v:paragraph v:horizAlign="1"/><v:tabList/>Managed side</text>		</g>
		<g id="shape38-177" v:mID="38" v:groupContext="shape" transform="translate(18.375,-180.375)">
			<title>Sheet.38</title>
			<desc>Native side</desc>
			<v:textBlock v:margins="rect(4,4,4,4)"/>
			<v:textRect cx="44.1562" cy="537.083" width="88.32" height="14.0625"/>
			<rect x="0" y="530.052" width="88.3125" height="14.0625" class="st14"/>
			<text x="17.11" y="540.68" class="st18" v:langID="1033"><v:paragraph v:horizAlign="1"/><v:tabList/>Native side</text>		</g>
		<g id="shape39-180" v:mID="39" v:groupContext="shape" v:layerMember="0" transform="translate(486,-171.375)">
			<title>Dynamic connector.39</title>
			<desc>Strong handle (only during unload)</desc>
			<v:textBlock v:margins="rect(4,4,4,4)"/>
			<v:textRect cx="9" cy="528.739" width="75.66" height="27.2035"/>
			<path d="M9 544.11 L9 484.38" class="st11"/>
			<rect v:rectContext="textBkgnd" x="-23.9215" y="519.14" width="65.8433" height="19.1997" class="st9"/>
			<text x="-13.7" y="526.34" class="st10" v:langID="1033"><v:paragraph v:horizAlign="1"/><v:tabList/>Strong handle<v:newlineChar/><tspan
						x="-23.92" dy="1.2em" class="st3">(only during unload)</tspan></text>		</g>
	</g>
</svg>
